<?xml version="1.0" encoding="UTF-8"?>
<svg width="90px" height="60px" viewBox="0 0 90 60" version="1.1" xmlns="http://www.w3.org/2000/svg" xmlns:xlink="http://www.w3.org/1999/xlink">
    <title>形状结合@2x</title>
    <g id="页面-1" stroke="none" stroke-width="1" fill="none" fill-rule="evenodd">
        <g id="图片加载中" transform="translate(-1140.000000, -322.000000)" fill="#9495BC">
            <g id="照片组" transform="translate(820.000000, 154.000000)">
                <g id="编组-6" transform="translate(320.000000, 168.000000)">
                    <path d="M27.0337959,55.6926538 C27.1715898,55.6926538 27.3474787,55.6993462 27.4935093,55.7594916 C27.8139273,55.890636 27.8060337,56.0476919 27.7668663,56.2933357 L27.7668663,56.2933357 L27.7473898,56.4248233 C27.7419416,56.462189 27.7410407,56.5365771 27.7397966,56.6267523 C27.7316027,57.0938444 27.7109251,57.3045678 27.6077084,57.4038807 C27.545418,57.4639832 27.450438,57.480757 27.0741646,57.5019494 L27.0741646,57.5019494 L27.0043238,57.5052956 C26.8141923,57.5210827 26.623503,57.5250295 26.4330712,57.5283757 C26.2138107,57.5317218 25.9882011,57.5356686 25.7689406,57.5608936 C25.3905651,57.6046514 24.9988049,57.6632095 24.5715666,57.7394423 C23.131466,57.9964116 21.5593629,58.1488343 19.4748657,58.2317165 C18.384698,58.2760748 17.4581928,58.3349762 16.4815808,58.4837095 C15.8501827,58.5803196 15.2200716,58.6802331 14.5896603,58.779503 C12.9300418,59.0419206 11.2142676,59.3143338 9.50458515,59.5120157 C6.93699414,59.8102545 4.42431477,59.8509235 2.30433942,59.8509235 C1.88979945,59.8509235 1.84852992,59.8603185 1.7601565,59.8815968 C1.67997693,59.8998292 1.57071135,59.9235098 1.2439442,59.9565855 L1.2439442,59.9565855 L1.19898529,59.9617764 C1.0923795,59.9742173 0.869172264,60 0.671232966,60 C0.412461869,60 0.271235998,59.9568858 0.200451464,59.8585167 C0.161026623,59.8044631 0.149786897,59.7309759 0.164630199,59.6438036 C0.189812334,59.4935259 0.306199268,59.269332 0.557891912,59.0907834 C1.01344401,58.7695074 1.79301769,58.5104789 2.10730102,58.4433837 C2.30433942,58.4020713 2.44526499,58.3689956 2.55766226,58.3422691 C2.93668126,58.2526945 3.01707533,58.2377654 3.64662869,58.2377654 L3.64662869,58.2377654 L3.71007737,58.2377654 C5.58071957,58.2377654 7.58439378,58.0322328 10.2072825,57.5690446 C10.804275,57.4630823 11.4052571,57.3513285 12.0084272,57.2389742 C13.9610078,56.8751417 15.980512,56.5001552 17.968056,56.3325031 C18.5055894,56.2869436 19.2003504,56.2984837 19.8727176,56.3194616 C20.3306721,56.333404 20.7874254,56.3476896 21.2371432,56.3340475 C22.1238803,56.3072781 23.0170096,56.178536 23.9295295,56.038254 C24.1303001,56.0069372 24.3297838,55.974505 24.5280663,55.9404855 C25.249039,55.8207953 25.9936494,55.6969438 26.7510439,55.6969438 L26.7510439,55.6969438 Z M61.241825,55.5001499 C61.6174549,55.2289379 62.8689254,55.4327116 64.4644518,55.727261 C65.0104794,55.8274748 65.4796736,55.9143467 65.6661157,55.9161485 C66.7441857,55.9295332 67.8140188,56.0637235 68.8477304,56.1943532 C69.4456667,56.2699854 70.0648383,56.3477197 70.6789049,56.4011298 C71.2261337,56.449392 71.7791539,56.5529948 72.3126977,56.6522648 C72.8088759,56.7451855 73.3206266,56.839951 73.8216524,56.8897576 C74.3473884,56.9417092 74.8802887,56.9659475 75.3962436,56.9887272 C76.0354923,57.0172985 76.696577,57.0477144 77.357061,57.1299531 C78.2164711,57.2380604 79.1020499,57.3112473 79.9577277,57.3822893 C81.3756492,57.5004351 82.8442781,57.6222274 84.2627144,57.9040356 C84.649627,57.9805687 85.0465351,58.0770931 85.4689258,58.1800953 C85.9174852,58.2888032 86.381746,58.4030022 86.8273024,58.4880295 C87.0434741,58.5289987 87.296754,58.5393375 87.5652205,58.550277 C88.1376314,58.5743008 88.7860177,58.6006412 89.2308878,58.9556364 C89.5588133,59.2171102 89.5172863,59.4718916 89.4835671,59.5694456 C89.4039453,59.8017046 89.1327762,59.9547708 88.7929675,59.9608197 L88.7929675,59.9608197 L88.7292185,59.9608197 C88.3592942,59.9608197 87.9918582,59.9116137 87.6350612,59.8633515 C87.2782643,59.814789 86.9089835,59.7655831 86.5381583,59.7655831 C83.8320441,59.7655831 81.1427466,59.3711202 78.8697051,58.985752 C77.4767512,58.7494604 76.0451877,58.7048447 74.6622295,58.6620307 C73.5832587,58.6292124 72.4672654,58.5942921 71.3734084,58.4700974 C70.1271287,58.328228 68.8647187,58.1017175 67.6436211,57.8830577 C66.299573,57.6410603 64.9102227,57.3920275 63.5406921,57.255349 C63.3365753,57.2347142 63.109121,57.2325692 62.8695689,57.2286654 C62.3550726,57.2228739 61.8263765,57.2159241 61.3951914,57.0428238 C60.8685974,56.8314569 60.9502785,56.4925491 61.0149283,56.2201359 C61.0502348,56.0750062 61.0863564,55.924042 61.0605307,55.7579343 L61.0605307,55.7579343 L61.2308855,55.7309504 L61.1087929,55.7120745 C61.1200756,55.626747 61.1676942,55.5538604 61.241825,55.5001499 Z M53.8663982,54.7445658 C54.5627464,54.7324252 55.2849203,54.7190405 55.9827271,54.8053118 C56.2251105,54.8344836 56.4510204,54.8742087 56.6763726,54.9131188 C56.8728104,54.9474386 57.0689909,54.9817583 57.2721639,55.0081846 C57.3277191,55.0154775 57.4218839,55.0145337 57.5284468,55.0154775 C57.8797955,55.0139331 58.1573567,55.0218267 58.3013281,55.1162918 C58.450705,55.2131594 58.5415237,55.3491944 58.5658478,55.5077518 C58.6055729,55.7594873 58.4820218,56.0637321 58.1992697,56.4135793 C57.7960124,56.9110015 57.6210673,56.908256 57.259723,56.7759103 C57.1536749,56.7376009 57.0358723,56.6944867 56.8728104,56.6629125 C56.3620035,56.5623984 55.7531707,56.59852 55.1652301,56.6319389 C54.8779736,56.6495278 54.5967659,56.6653148 54.3376945,56.6653148 C53.1846359,56.6653148 52.0910792,56.7348553 50.936562,56.808986 L50.936562,56.808986 L50.0971861,56.8617956 C48.1214396,56.9787402 46.0964871,56.9532149 44.1405174,56.9288907 C43.3080913,56.9188951 42.4757939,56.9076983 41.6461133,56.9076983 L41.6461133,56.9076983 L34.5452233,56.9076983 C34.269464,56.9076983 33.9922031,56.903108 33.7152425,56.8982603 C33.172604,56.8897662 32.6113899,56.8800279 32.0665634,56.9076983 C31.8331032,56.9194957 31.6031607,56.9489678 31.3815408,56.9769384 C31.0836022,57.015162 30.7793145,57.0528709 30.4558935,57.0528709 C30.3760572,57.0528709 30.2940329,57.0515839 30.2114081,57.0458353 L30.2114081,57.0458353 L30.0717266,57.0364403 L30.0653774,56.8961153 C30.0519927,56.607915 30.0541377,56.3158108 30.0559395,56.0236638 L30.0559395,56.0236638 L30.0586851,55.6859572 L30.1488603,55.6859572 L30.1139399,55.5869446 C30.1281826,55.5817967 30.141267,55.574804 30.1534505,55.5687123 C30.1710394,55.5603039 30.1941195,55.5490213 30.2205457,55.5398837 C30.2344881,55.50595 30.2548655,55.4743329 30.2812488,55.4454614 C30.5415643,55.1554593 31.4221668,55.1232416 32.3793882,55.1144901 C32.5673748,55.1120448 32.7179957,55.1114442 32.7993764,55.1035506 C33.2150747,55.066185 33.6250673,55.022127 34.032014,54.9784121 C35.0617788,54.867259 36.1261637,54.7537034 37.2373093,54.7537034 L37.2373093,54.7537034 L53.1154387,54.7537034 C53.3634848,54.7537034 53.6143624,54.7494564 53.8663982,54.7445658 Z M86.5907191,53.8019646 C86.7243088,53.8380862 86.8482032,53.8703039 86.989429,53.9112731 C87.1573385,53.9598785 87.4015237,53.9845029 87.6599516,54.0099853 C88.3107403,54.0761796 89.0495593,54.1511683 89.3845632,54.6258537 C89.5561192,54.8666498 89.5952437,55.1833784 89.5020226,55.565143 L89.5020226,55.565143 L89.4740949,55.6783983 L89.3577938,55.6832459 C89.2060146,55.6907963 89.0595978,55.6944857 88.916227,55.6944857 C87.9979585,55.6944857 87.2363598,55.5496562 86.429459,55.39659 C85.9915387,55.3133646 85.539676,55.2277367 85.0316575,55.1585395 C84.8050612,55.1269224 84.5773495,55.1047003 84.3507532,55.078317 C85.3173696,54.8283833 86.0650688,54.4002012 86.5907191,53.8019646 Z M4.98155208,53.0513011 C6.00042038,53.8527107 7.60328253,54.4299693 9.95766194,54.4718823 C10.113774,54.4758291 10.2719882,54.4758291 10.4295588,54.4779312 L10.4295588,54.4779312 L10.3673113,54.4855244 C9.87379299,54.5477719 9.36362955,54.6103197 8.8692532,54.7026828 C7.43013927,54.9726078 5.99132564,55.0093729 4.65058076,55.0093729 C4.26551289,55.0093729 3.88014472,55.006327 3.49447626,55.0027234 C3.11030929,54.9999778 2.72738641,54.9966317 2.34476383,54.9966317 C2.07689799,54.9966317 1.91812613,54.9941864 1.8014818,54.9930281 L1.8014818,54.9930281 L1.63262851,54.9917411 C1.48320879,54.9917411 1.345372,54.9975755 0.89865724,55.0169661 C0.860090394,55.0193685 0.812686206,55.0245594 0.759276057,55.0309514 C0.665111177,55.0415906 0.559449172,55.0527874 0.460436623,55.0527874 C0.386906507,55.0527874 0.162240685,55.0527874 0.0541333962,54.8976191 C-0.0105593782,54.804398 -0.0178094305,54.6844504 0.0353004201,54.5422807 L0.0353004201,54.5422807 L0.0477413383,54.5046577 C0.0707784867,54.4345167 0.0942017326,54.3932042 0.162841281,54.3440412 L0.162841281,54.3440412 L0.203810512,54.2826946 C0.31346219,54.0622329 0.791751143,53.7451611 1.03984021,53.6643809 L1.03984021,53.6643809 L1.30075629,53.5778522 C1.375745,53.5529275 1.3760453,53.5529275 1.41611364,53.5432321 C1.45103401,53.5359392 1.52057445,53.5207527 1.72705079,53.4669564 C2.66205014,53.2225567 3.69280166,53.0916268 4.98155208,53.0513011 Z M62.4290639,51.2462482 L62.6766704,51.2516322 C65.4225955,51.3874098 68.1996658,51.7566476 70.8875476,52.1129298 C71.4183888,52.1824273 71.9552787,52.2535122 72.4927693,52.3230526 C72.6336949,53.056123 72.9993291,53.7132609 73.5580551,54.2177186 C73.5690374,54.2277143 73.5835804,54.2377528 73.5951204,54.2480916 C73.1043906,54.1827554 72.6163634,54.114459 72.1350285,54.0448757 C70.6235857,53.8274599 69.0606203,53.6030515 67.5224509,53.5514431 C66.3931158,53.5143778 65.278624,53.3777422 64.2017982,53.2462545 C63.2567174,53.1302108 62.2801054,53.0111641 61.3082981,52.9611001 L61.3082981,52.9611001 L61.1504271,52.9532066 L61.1698607,52.6452724 C61.1898948,52.2100548 61.223614,51.5526166 61.7420142,51.358238 L61.7420142,51.358238 L61.8941366,51.2511174 L61.9417982,51.2511174 C62.0219778,51.2511174 62.1012135,51.2504739 62.1804922,51.2492298 C62.3463425,51.2468274 62.512107,51.2428806 62.6766704,51.2516322 Z M24.4461064,51.4211118 C24.7576871,51.3964873 25.0996407,51.4056679 25.4482438,51.41502 C25.6286371,51.4202109 25.8132775,51.4256592 25.9948291,51.4256592 C26.0786981,51.4256592 26.1676721,51.4229136 26.2581905,51.4202109 C26.4525262,51.9941662 26.7983837,52.5322574 27.2909583,52.9966039 C27.3128371,53.0166381 27.3407649,53.0385169 27.3644455,53.0594949 C26.5898053,53.106513 25.8038396,53.2119176 25.043485,53.3172793 C24.3094708,53.4186942 23.549631,53.5240988 22.7977705,53.574506 C22.2468953,53.6124723 21.6896279,53.7038487 21.1509362,53.7916215 L21.1509362,53.7916215 L20.8572447,53.8398837 C20.18462,53.9480339 19.5398802,53.956528 18.8274446,53.956528 L18.8274446,53.956528 L18.5438345,53.956528 C18.144524,53.956528 17.7451705,53.9528815 17.3467608,53.9495353 L16.748905,53.9446877 L16.748905,53.9446877 L16.1517892,53.9425427 C15.8177291,53.9425427 15.4602886,53.9470901 15.0937534,53.954383 C16.2167822,53.5632663 17.2592454,52.8735675 17.9237191,51.6829288 C18.2780708,51.6461637 18.6358115,51.6209816 18.9941958,51.6209816 C21.026098,51.6206384 22.8096109,51.5550447 24.4461064,51.4211118 Z M15.2151854,1.77635684e-14 C16.1490693,0.639548992 16.5074107,1.52079499 16.613373,2.5080462 C17.2583702,2.02551017 17.9261472,2.06467762 18.4979576,2.62623492 C18.8535533,3.5560863 18.5256279,4.20773302 17.5204446,4.57915877 C17.7578945,3.31739227 16.2616811,3.05197172 16.0597092,4.34321033 C15.9899114,4.84397873 15.9932576,5.33899857 16.0737374,5.83273143 C16.5419878,6.49806315 17.3002833,6.93572607 18.7922496,5.79356398 C19.6674468,7.04962482 20.6185764,6.93572607 21.2586831,6.36026926 C21.5812461,5.90621864 21.7941145,5.46529534 21.8147922,5.01008644 C21.8372287,4.04771707 20.9146274,3.96573571 20.7491632,4.93265245 C19.9413186,4.19224622 19.5277653,3.42241078 20.5371957,2.54421066 C21.3164261,2.19436346 21.8970738,2.57063689 22.4497938,3.0549747 C22.702087,1.56335151 23.7512854,1.17339308 24.9167849,0.945338181 C23.7683166,3.65235327 22.6237092,6.36026926 21.4782439,9.06994413 C22.9726984,9.21417298 24.376892,9.94878775 24.7649628,12.00377 C23.8041379,11.3417416 22.72092,11.1407135 21.6896537,11.1689844 C21.6878519,11.3529813 21.6750249,11.5324737 21.6541327,11.7073759 C23.2738974,11.9609132 25.2754695,12.4905531 26.7872126,13.5039303 C28.3823957,14.442619 28.9733394,15.4784756 29.15103,16.9005583 C29.1631277,17.0023164 29.0246474,17.1189179 28.9454116,17.0758037 C28.2673387,16.6910361 27.5600082,16.3345394 26.7364194,16.0828039 C26.6662783,16.0624265 26.5238513,16.1878224 26.5238513,16.2731499 L26.5238513,16.2731499 L26.5238513,16.4799266 C26.5238513,16.5431179 26.6304571,16.7174623 26.6845107,16.7417007 C27.1900174,16.9721343 27.7163466,17.1913337 28.2403889,17.4117197 L28.688469,17.6012023 C30.9950866,18.5846906 33.1273619,19.6610522 33.078156,21.9091004 C33.0766545,22.032437 32.8652447,22.1879056 32.7763135,22.1441908 C31.9530251,21.732997 31.3891083,21.5198283 30.4568545,21.1605432 C29.9678835,20.9716557 29.458621,20.8887306 29.3414189,21.1605432 C29.279772,21.3032705 29.3347266,21.486152 29.3963735,21.6522597 C29.4662142,21.8332108 31.0085878,23.2929595 31.5421745,23.5699629 C32.7815044,24.2161614 34.1789627,24.3179195 36.6834482,23.8896945 C36.8732366,23.8514709 37.0657276,23.818052 37.2622083,23.7870784 C37.2825857,23.7843328 37.2992737,23.7819304 37.3196081,23.7779408 L37.3196081,23.7779408 C37.4450469,23.761596 37.5722875,23.742763 37.7007292,23.729078 C37.7007292,23.729078 39.4022437,23.4408604 41.1708793,23.0984697 L41.6327105,23.0080754 C42.1707824,22.9015408 42.7019073,22.7918733 43.1800099,22.6856711 C43.1800099,22.6856711 48.6233835,21.892155 51.8049981,21.2037003 C59.8989737,19.198782 66.0329469,18.973773 69.5935806,22.2222254 C69.7004867,22.129562 69.797912,22.0335953 69.8769333,21.9316227 C70.579888,21.0181161 70.5133935,19.5434383 70.1438553,18.9886163 C69.1228849,17.4453847 67.4189081,16.6764931 65.6897492,16.4933113 C64.7334716,16.3870487 61.8173204,16.6118003 58.1992869,17.0044185 C55.6763545,17.2761882 52.8916051,17.99197 49.5896996,18.1337965 C44.5216557,18.3567034 41.1535559,15.6497312 41.1763357,13.2719286 C41.1829851,12.4583354 41.3142154,11.7137679 41.6455299,11.0453903 C42.0074748,10.0711806 42.5616963,9.28830369 43.1383972,8.55064305 C43.2795801,8.36994943 43.6528077,8.2691351 43.6987104,8.39547477 L43.6987104,8.39547477 L43.8465857,8.80302208 C45.5264958,6.6578646 46.7509395,6.19171626 47.9668891,5.7601451 C48.0671028,5.72556793 48.2751236,5.8066055 48.2702759,5.88524068 C48.2432062,6.32195981 48.027249,6.78235958 47.6178999,7.26429501 C50.7928651,5.78511274 55.6349991,5.55032258 62.9077883,7.13430886 C63.6648825,5.79781106 64.9843491,5.229304 66.8647296,5.42977438 C68.3314709,5.25637372 69.5987286,4.73222497 70.7466392,4.00220047 C70.8037388,3.96543541 70.9427767,3.99580841 70.9543597,4.04866086 C71.0758088,4.74316439 70.8277197,5.51235633 70.4022832,6.31831333 C72.264088,6.2326855 73.9243071,5.54028405 75.4651363,4.49743481 C75.5219355,4.46011206 75.6449719,4.48224831 75.6495193,4.53059629 C75.8541938,6.19866602 75.1551429,7.9189876 71.4493795,9.80786217 C72.0406234,9.94698596 72.6309664,10.0881689 73.2209663,10.2266921 C73.2793099,10.239991 73.2690139,10.3423498 73.2070667,10.3791148 C68.6096756,13.1340918 64.9634141,13.0593176 62.4580706,9.57860608 C58.5606741,9.00465076 55.0695809,8.66544269 52.2232275,8.72374341 C48.6692862,8.98122751 45.9116065,9.90932001 45.0363665,11.438652 C44.8960844,11.6818934 44.3142355,13.3368788 45.6950487,14.5309924 C45.7275667,14.5595636 46.3835034,14.9020321 47.1092808,15.0876162 C48.4712611,15.4368199 50.5001174,15.5097495 53.3076466,15.1899321 C56.7726139,14.467844 59.5445791,13.6442552 64.1944366,13.5835092 C68.2400516,13.5780181 73.3676833,14.3621391 75.1272152,17.263447 C76.2529038,18.9595303 76.8043797,20.3980436 76.5763248,21.4866668 C76.5644845,21.5437664 76.4202556,21.5850788 76.363199,21.5502013 L76.363199,21.5502013 L75.8271241,21.2185865 C76.0118074,21.895158 76.2395191,22.550494 75.7421398,23.5781139 C75.7190168,23.6237163 75.5793782,23.6455522 75.5350199,23.6085298 C75.1785233,23.3084463 74.9000183,22.9525931 74.6607666,22.5705282 C74.8125887,24.4624487 73.208225,25.5775839 72.1523772,26.329187 C72.7916259,28.2135142 73.1189936,30.5481597 73.102563,33.4124452 C73.3367526,35.2457217 78.0661462,39.4677832 80.3747516,40.6396319 C80.555102,40.7347406 80.7212097,40.8048816 80.8706294,40.8570477 C81.016703,40.9099431 81.3477172,41.0334942 81.4995822,41.2099408 C81.6131377,41.3381251 81.7601122,41.5139711 81.9244181,41.7265392 C82.8069082,42.869259 84.2056106,45.0776077 83.8123489,47.1207497 C83.8123489,47.1207497 83.8114937,47.1222052 83.809907,47.1250845 L83.7925976,47.1591935 C83.6961595,47.3619499 83.3207944,48.3484061 84.375708,49.681348 C87.5722088,53.7733805 81.1420988,53.3859103 78.9456333,52.8022596 C77.839936,52.0251312 77.4451299,52.9416408 76.5903101,52.9965953 C73.2058227,53.2186014 74.624645,48.8590463 77.4773475,49.8590387 C78.390468,50.180615 79.5056033,49.615497 79.4575985,48.5826434 C79.1699988,46.0721519 78.9077099,44.4647424 76.434198,44.0442393 C70.4259638,43.026229 60.8862249,38.7595947 59.7264739,32.2098374 C59.7264739,32.2098374 58.3815249,26.4709705 52.2241284,27.9848158 C51.8724365,28.0722883 51.3850957,28.0746907 51.5566088,28.5906456 C51.6359304,28.8335867 54.6617333,30.2189902 55.0240214,30.4020862 C55.5881637,30.7695731 54.3887736,31.3133375 53.1703832,31.8302299 L52.9186036,31.936723 C51.2877128,32.6255702 49.8400513,33.2404792 52.8186756,33.2873496 C53.5101761,33.1166516 54.5481777,32.8643155 55.1728405,32.7085037 C55.1728405,32.7085037 58.2302605,32.8341999 54.7968674,34.0805654 C54.7968674,34.0805654 50.4357547,36.5553952 46.1132435,38.7815206 L45.4657063,39.1132337 C42.5580414,40.5944848 39.7681953,41.9003744 38.4492864,42.1932881 C38.4492864,42.1932881 36.2023708,43.1918219 37.2005614,41.0702593 C37.2005614,41.0702593 38.7235443,34.2888435 34.9402611,34.0152291 C34.6256775,34.0237233 33.7529685,34.1673944 34.2287693,34.8576509 C34.3110509,34.9800009 34.7535615,35.1631398 34.9600379,35.1999048 C35.0210842,35.2102437 35.083632,35.2247867 35.1489253,35.2457217 C35.1741504,35.2548165 35.1993754,35.2645976 35.2236137,35.2754941 C35.5273008,35.3969861 35.8421848,35.6669111 36.0247231,36.2326726 C36.0475028,36.2946198 36.0648343,36.355709 36.0787767,36.4161118 C36.0827664,36.4303974 36.08637,36.4446401 36.0897161,36.4594834 C36.092762,36.4738119 36.0976097,36.4886981 36.1006985,36.5026834 L36.1006985,36.5026834 L36.104302,36.5427089 C36.1434695,36.7416778 36.1719978,36.9648421 36.1784328,37.2260585 C36.0532943,39.0082844 35.8850416,40.2035992 35.7174324,40.9721905 C35.4780949,42.0933318 35.5203511,42.3332699 35.6913065,43.50366 C35.6913065,43.50366 36.3275093,45.3746025 36.8892811,45.5637902 C36.8892811,45.5637902 38.6357286,48.3716197 37.5130859,49.5562525 C37.5130859,49.5562525 38.3096049,52.944987 34.5178705,51.6154818 C34.2655343,51.5274087 33.9907187,51.4187008 33.6964267,51.2881141 C32.2220492,50.6248844 31.066245,51.7864372 29.5831159,51.7834342 C29.4185097,51.7834342 28.9821767,51.57906 28.7923454,51.3998678 C28.2788358,50.9179324 27.6119168,49.8505016 29.6705885,48.5313353 C30.2490912,48.1590516 30.7966203,48.1182968 31.4619949,48.1350277 L31.4619949,48.1350277 L32.7705221,48.2461809 C32.7705221,48.2461809 33.3952278,46.2485984 32.084813,45.8756712 C32.084813,45.8756712 27.6307927,42.6937562 26.7923606,40.2069025 C26.7923606,40.2069025 24.6404679,36.621387 27.5612522,31.8685272 C27.8117437,31.454974 27.8624941,31.525973 27.7283037,31.0538187 L27.7283037,31.0538187 L27.4880224,30.2119546 C27.4880224,30.2119546 27.0923583,29.9013178 26.9052727,31.5857752 C26.9052727,31.5857752 23.2562656,36.0294996 25.0106066,39.6785067 C25.0990229,39.8604015 25.5038247,40.8404026 25.8133032,41.2898201 C26.0768791,41.6708982 26.6568833,42.4137498 27.19772,43.2151594 C27.2530178,43.3007872 27.3207564,43.4331758 27.3599239,43.550721 C27.3972466,43.6691242 27.1688914,43.8528637 27.0786733,43.8768446 C26.9927452,43.9005682 26.9041144,43.9215032 26.8126951,43.942138 C25.3125348,44.2610116 23.2380761,43.9503748 22.4780218,43.8801908 C20.9535374,43.740209 19.4982503,43.124641 19.4982503,43.124641 C19.4982503,43.124641 19.4943922,43.1227901 19.4869955,43.1191871 L19.4027064,43.0773363 C19.0580529,42.9036729 17.8753475,42.2808293 17.4238773,41.6946218 C16.6476498,40.6876367 16.9564849,38.7860209 16.9088662,37.8254533 C16.901273,37.7112972 16.9149151,37.5072232 16.8964253,37.4227966 C16.8906338,37.393968 16.8535685,37.3454055 16.8128996,37.3526556 L16.8128996,37.3526556 L16.8022604,37.3566023 L16.8022604,37.3566023 L16.7542556,37.4303898 C16.7220809,37.4883903 16.690807,37.5445889 16.6595331,37.6055923 C16.1635694,38.5409348 15.8529326,39.3596331 15.8453393,40.9652408 C15.8453393,41.0857461 15.6598409,41.5039325 15.2893161,41.1215674 C15.0269414,40.8507414 14.8280583,40.4793157 14.704121,40.1674776 C13.7487443,37.766552 14.1587369,36.5581957 15.5750711,34.2615593 C15.5987517,34.222349 15.6072888,34.0693257 15.5872546,34.0322174 C15.5234627,33.9177181 15.4603144,33.8011166 15.3937769,33.6867031 C15.3570976,33.6219245 15.1836112,33.600732 15.1350487,33.6556437 C14.3616097,34.5075034 13.9583094,35.1033376 13.682593,35.8485057 C13.4988535,36.347172 13.3366496,37.0043098 13.2923342,37.5126715 C13.2450158,38.0635468 13.2598591,38.6332979 13.2944363,39.2509252 C13.3045177,39.4234678 13.0924644,39.7717277 12.7958129,39.4786798 C11.96373,38.6569786 11.5477314,37.8503781 11.2091239,36.8597807 C11.0217809,36.3104498 10.9497522,35.6231963 10.9342654,35.0404466 C10.8902503,33.4081981 11.4043605,31.8062797 12.8735472,30.1649365 C12.9112131,30.1208785 12.9094113,29.9095116 12.8550574,29.8433174 C12.8401712,29.8244844 12.7244278,29.5845463 12.6461358,29.5111019 C12.6230557,29.4886654 12.5941842,29.470433 12.5644118,29.4540024 C11.9103198,29.9474779 11.4095514,30.5457573 11.0533122,31.0616264 C10.7715039,31.6644533 10.5249163,32.4804488 10.3168527,33.6462486 C9.64246913,33.4670565 8.95491536,31.2049973 9.48180969,29.4090435 C9.8145828,28.2742173 10.4019657,27.8957989 10.6637398,27.4433785 C11.0618492,26.7558247 11.0439171,26.2972696 10.3679463,26.3112549 C9.57262839,26.329187 8.82557271,27.0464274 8.56989039,27.3416203 C8.29348751,27.6595501 8.08701117,28.0285306 8.05663817,28.2839126 C6.70250858,26.939221 7.40765124,25.425676 7.73351749,25.2177411 C6.25343433,23.8007205 7.3071801,23.0494178 7.54102646,22.8232075 C7.53828088,23.0506618 7.44501689,23.494631 8.26766188,24.0351675 C9.09215156,24.5751462 10.3451665,23.544695 10.7636104,23.1235485 C10.6008488,23.2283096 9.43779458,23.209734 9.02655789,23.1684645 L9.02655789,23.1684645 L8.99014673,23.1408893 C8.73224169,22.9441523 7.20617629,21.7557946 7.71893159,21.5653449 C8.24278004,21.3060161 9.60085641,20.8948652 10.049373,20.9919902 C8.89781583,19.3630879 7.62751229,20.2522704 7.58654306,20.4308619 C7.58349718,20.6606757 6.27681468,21.7281065 5.73258886,21.8453514 C5.73258886,21.8453514 6.13859179,22.5775209 6.33657398,22.758858 C6.62391629,22.9531937 6.99714384,23.3983641 6.49088427,23.5726227 C5.9852682,23.7461092 4.35966919,22.3442751 4.07721745,21.9172942 C1.65690117,20.9519648 2.23119969,19.3630879 2.40545835,18.7982702 C1.35081169,19.5483289 0.89864866,17.9328113 1.27946945,17.6888835 C1.60833869,17.4778598 4.67849989,14.9755622 5.05846269,14.7326211 C5.09818783,14.3287631 6.08728372,11.4832678 8.22459056,10.2682619 C8.60262288,10.0529483 8.92025239,9.82974103 9.19751326,9.60413141 C7.97405621,6.7176668 6.75446013,3.8306016 5.53246167,0.945338181 C6.69431473,1.17339308 7.74475722,1.56335151 7.99769396,3.0549747 C8.54826893,2.57063689 9.12921691,2.19436346 9.91059237,2.54421066 C10.9194221,3.42241078 10.5082283,4.19224622 9.69828167,4.93265245 C9.53251716,3.96573571 8.61266141,4.04771707 8.63454027,5.01008644 C8.65457443,5.46529534 8.86684224,5.90621864 9.18781793,6.36026926 C9.83225749,6.93572607 10.7814995,7.04962482 11.6542943,5.79356398 C13.1466039,6.93572607 13.9079023,6.49806315 14.3731068,5.83273143 C14.4532864,5.33899857 14.4611799,4.84397873 14.3892371,4.34321033 C14.1876084,3.05197172 12.6877485,3.31739227 12.9297458,4.57915877 C11.9203583,4.20773302 11.5981386,3.5560863 11.9506884,2.62623492 C12.5203967,2.06467762 13.1881308,2.02551017 13.8356591,2.5080462 C13.9406777,1.52079499 14.2765395,0.639548992 15.212783,0.00180178815 L15.212783,0.00180178815 L15.212783,0.23869403 C15.212783,0.157870961 15.212783,0.0807801685 15.2151854,1.77635684e-14 Z M40.0551687,50.5774674 C42.0572985,50.5774674 44.0582272,50.5875488 46.0582549,50.5956998 C46.0275816,51.1180896 46.1101636,51.5699095 46.2307547,51.9385896 C46.278116,52.0822608 46.3430661,52.2322382 46.4165963,52.3856047 C45.6513082,52.3901521 44.8857627,52.3968444 44.115627,52.4095856 C43.1262737,52.4275114 42.1034586,52.444506 41.1034233,52.3943991 C40.4851526,52.3640261 39.8553418,52.3685735 39.2352264,52.3761667 C39.5811268,51.778874 39.720508,51.1429715 39.7593752,50.5821006 C39.8577442,50.5811568 39.9561562,50.5774674 40.0551687,50.5774674 Z M17.6977877,43.950379 C17.7810132,43.9348922 17.9127582,43.9321467 18.0788659,43.9487918 C18.298727,43.9707135 18.7904436,44.1565551 18.7904436,44.1565551 C18.7904436,44.1565551 19.6525563,44.607474 20.9116201,44.8592525 C22.3325446,45.1438063 23.5354097,45.3108149 23.8630349,45.3375843 C24.2001409,45.3679573 24.3604571,45.4477937 24.1564261,45.6387832 C23.5915655,46.1702249 22.0185186,47.4663541 18.0640226,48.6980479 C18.0640226,48.6980479 16.259875,49.0585342 16.0803826,50.500694 C15.199394,52.2939022 12.4544984,52.3261199 9.99715971,52.2817616 C4.3596649,52.1788452 4.48750606,48.5013098 9.13470379,48.3284668 C10.5409994,48.2713673 13.2616566,48.3339151 14.8177152,46.7132067 L14.8177152,46.7132067 L16.859656,44.5944325 C17.1250336,44.3199172 17.5034091,43.9880021 17.6977877,43.950379 Z M55.5855401,35.0620165 C58.0942298,34.3252997 59.6997517,36.321681 59.6997517,36.321681 C62.5312189,39.3031684 61.4944614,38.9779457 61.2524641,41.7140897 C61.2023572,42.27007 61.1094364,42.3600307 61.489914,42.7453989 C64.0843247,45.363879 61.4025536,46.8243945 61.1696198,46.9439522 L61.1537518,46.9519307 C59.8655591,46.840177 59.3647907,48.0682243 59.3647907,48.0682243 C59.1637626,49.8049765 57.5059459,52.2167557 55.6152696,52.2031287 L55.6152696,52.2031287 L50.0759293,52.1551517 C47.7420989,51.5993858 48.5918136,50.0421261 49.3853297,49.1019359 C50.1214459,48.224894 52.1494443,48.222792 53.1922506,48.2188452 C53.8597273,48.217644 53.8290111,48.3466863 54.3067424,47.9300443 C56.3352984,46.1529235 57.0307458,44.2449156 56.66361,42.5069623 C56.2973751,40.7729986 54.8685142,39.2054 52.6504701,38.1124868 C50.5745098,37.4517024 54.7534571,35.7100597 55.5855401,35.0620165 Z M67.8334481,36.1752728 C67.2525001,34.126082 64.9634141,36.2120379 64.9634141,36.2120379 L64.9634141,36.2120379 L65.4429042,36.3465714 L65.533527,36.2777039 C66.2144856,35.8338749 67.8334481,36.1752728 67.8334481,36.1752728 Z M36.2892427,32.2293139 C36.2892427,32.2293139 35.0052971,32.4428258 36.7881664,33.5126589 C36.7881664,33.5126589 36.7915901,33.5128166 36.7982035,33.5130159 L36.8742891,33.5137844 C37.1324011,33.5124158 37.923997,33.4737615 38.6071574,33.0796292 L38.6071574,33.0796292 L38.7174996,33.013852 C39.4067388,32.589006 39.1760219,32.4338413 38.4787585,32.3270823 L38.4787585,32.3270823 Z M69.4153323,29.7619366 C68.6355012,25.6191538 63.9463905,27.2085883 64.2406396,28.2957958 C66.9621908,28.5335779 67.1327065,28.7304383 68.6485139,30.249447 L68.9826028,30.5830372 L69.0398558,30.6261172 C69.3144342,30.7625474 69.4153323,29.7619366 69.4153323,29.7619366 Z M10.548597,13.5124673 C9.19522574,13.1129934 6.76283594,14.8627341 6.45461237,15.0901699 L6.42220182,15.1142999 L6.59068566,15.1842182 C9.23286836,16.2085936 11.9672647,13.931981 10.548597,13.5124673 Z" id="形状结合"></path>
                </g>
            </g>
        </g>
    </g>
</svg>