<?xml version="1.0" encoding="UTF-8"?>
<svg width="106px" height="718px" viewBox="0 0 106 718" version="1.1" xmlns="http://www.w3.org/2000/svg" xmlns:xlink="http://www.w3.org/1999/xlink">
    <title>右侧装饰@2x</title>
    <defs>
        <polygon id="path-1" points="0 0 16 0 16 420 0 420"></polygon>
        <radialGradient cx="100%" cy="50%" fx="100%" fy="50%" r="1752.74963%" gradientTransform="translate(1.000000,0.500000),scale(1.000000,0.038095),rotate(90.000000),scale(1.000000,0.199396),translate(-1.000000,-0.500000)" id="radialGradient-3">
            <stop stop-color="#2F3258" offset="0%"></stop>
            <stop stop-color="#242545" offset="100%"></stop>
        </radialGradient>
        <radialGradient cx="100%" cy="50%" fx="100%" fy="50%" r="1294.98138%" gradientTransform="translate(1.000000,0.500000),scale(1.000000,0.038095),rotate(90.000000),translate(-1.000000,-0.500000)" id="radialGradient-4">
            <stop stop-color="#5A5E96" offset="0%"></stop>
            <stop stop-color="#575B93" stop-opacity="0.15" offset="99.9414404%"></stop>
        </radialGradient>
        <linearGradient x1="50%" y1="0%" x2="50%" y2="100%" id="linearGradient-5">
            <stop stop-color="#454670" stop-opacity="0.25" offset="0%"></stop>
            <stop stop-color="#454670" offset="100%"></stop>
        </linearGradient>
    </defs>
    <g id="页面-1" stroke="none" stroke-width="1" fill="none" fill-rule="evenodd">
        <g id="二手车在拍车辆投屏" transform="translate(-1494.000000, -73.000000)">
            <g id="右侧装饰" transform="translate(1547.000000, 432.000000) scale(-1, 1) translate(-1547.000000, -432.000000) translate(1494.000000, 74.000000)">
                <g id="编组-8" transform="translate(0.000000, 166.000000)">
                    <mask id="mask-2" fill="white">
                        <use xlink:href="#path-1"></use>
                    </mask>
                    <g id="蒙版"></g>
                    <path d="M0,0 L11.6173762,14.5217202 C14.454385,18.0679812 16,22.4741913 16,27.0156212 L16,392.984379 C16,397.525809 14.454385,401.932019 11.6173762,405.47828 L0,420 L0,420 L0,0 Z" id="矩形" fill="url(#radialGradient-3)" mask="url(#mask-2)"></path>
                    <path d="M-1,0 L10.6173762,14.5217202 C13.454385,18.0679812 15,22.4741913 15,27.0156212 L15,392.984379 C15,397.525809 13.454385,401.932019 10.6173762,405.47828 L-1,420" id="路径" stroke="url(#radialGradient-4)" stroke-width="2" mask="url(#mask-2)"></path>
                </g>
                <g id="编组-7" transform="translate(61.000000, 358.000000) scale(-1, 1) translate(-61.000000, -358.000000) translate(16.000000, 0.000000)">
                    <path d="M82,372.080625 L82,383.919375 C82,384.47166 81.5522847,384.919375 81,384.919375 C80.7729285,384.919375 80.552618,384.842094 80.375305,384.700244 L72.976086,378.780869 C72.5448241,378.435859 72.4749027,377.806567 72.8199122,377.375305 C72.866044,377.31764 72.9184213,377.265263 72.976086,377.219131 L80.375305,371.299756 C80.8065669,370.954746 81.4358593,371.024668 81.7808688,371.45593 C81.9227192,371.633243 82,371.853553 82,372.080625 Z" id="矩形" fill="#C8C8F3" transform="translate(77.000000, 378.000000) scale(-1, 1) translate(-77.000000, -378.000000) "></path>
                    <g id="编组-15备份-2" transform="translate(45.000000, 175.000000) scale(-1, 1) translate(-45.000000, -175.000000) ">
                        <path d="M16,350 L16,170.970563 C16,167.787965 14.7357179,164.735718 12.4852814,162.485281 L3.51471863,153.514719 C1.26428208,151.264282 -2.27028831e-14,148.212035 0,145.029437 L0,6 C-4.05812251e-16,2.6862915 2.6862915,6.08718376e-16 6,0 L38.5147186,0 C40.1060176,-9.17410107e-15 41.632141,0.632141042 42.7573593,1.75735931 L49.2426407,8.24264069 C50.367859,9.36785896 51.8939824,10 53.4852814,10 L81,10 L81,10" id="路径" stroke="#454670" stroke-width="2"></path>
                        <path d="M71.4142136,5 L83.5857864,5 C83.8510029,5 84.1053568,5.10535684 84.2928932,5.29289322 L88.2928932,9.29289322 C88.6834175,9.68341751 88.6834175,10.3165825 88.2928932,10.7071068 C88.1053568,10.8946432 87.8510029,11 87.5857864,11 L75.4142136,11 C75.1489971,11 74.8946432,10.8946432 74.7071068,10.7071068 L70.7071068,6.70710678 C70.3165825,6.31658249 70.3165825,5.68341751 70.7071068,5.29289322 C70.8946432,5.10535684 71.1489971,5 71.4142136,5 Z" id="矩形" fill="#454670"></path>
                    </g>
                    <path d="M66,716 L66,536.970563 C66,533.787965 64.7357179,530.735718 62.4852814,528.485281 L53.5147186,519.514719 C51.2642821,517.264282 50,514.212035 50,511.029437 L50,412 C50,408.686292 52.6862915,406 56,406 L90,406 L90,406" id="路径" stroke="url(#linearGradient-5)" stroke-width="2" transform="translate(70.000000, 561.000000) scale(-1, -1) translate(-70.000000, -561.000000) "></path>
                </g>
            </g>
        </g>
    </g>
</svg>