<?xml version="1.0" encoding="UTF-8"?>
<svg width="1600px" height="72px" viewBox="0 0 1600 72" version="1.1" xmlns="http://www.w3.org/2000/svg" xmlns:xlink="http://www.w3.org/1999/xlink">
    <title>顶部装饰@2x</title>
    <defs>
        <rect id="path-1" x="0" y="0" width="1600" height="72"></rect>
        <radialGradient cx="50%" cy="100%" fx="50%" fy="100%" r="177.650123%" gradientTransform="translate(0.500000,1.000000),scale(0.058065,1.000000),rotate(-90.000000),scale(1.000000,5.795935),translate(-0.500000,-1.000000)" id="radialGradient-3">
            <stop stop-color="#3C3E6F" offset="0%"></stop>
            <stop stop-color="#353767" offset="100%"></stop>
        </radialGradient>
        <radialGradient cx="50%" cy="100%" fx="50%" fy="100%" r="371.757497%" gradientTransform="translate(0.500000,1.000000),scale(0.057471,1.000000),rotate(90.000000),scale(1.000000,3.729353),translate(-0.500000,-1.000000)" id="radialGradient-4">
            <stop stop-color="#686AA8" offset="0%"></stop>
            <stop stop-color="#686AA8" stop-opacity="0" offset="100%"></stop>
        </radialGradient>
        <radialGradient cx="60.8584905%" cy="100%" fx="60.8584905%" fy="100%" r="218.889803%" gradientTransform="translate(0.608585,1.000000),scale(0.045249,1.000000),rotate(90.000000),scale(1.000000,1.495380),translate(-0.608585,-1.000000)" id="radialGradient-5">
            <stop stop-color="#B6B7DD" offset="0%"></stop>
            <stop stop-color="#B6B7DD" stop-opacity="0" offset="100%"></stop>
        </radialGradient>
        <linearGradient x1="50%" y1="0%" x2="50%" y2="123.167203%" id="linearGradient-6">
            <stop stop-color="#353767" offset="0%"></stop>
            <stop stop-color="#32335A" offset="100%"></stop>
        </linearGradient>
        <linearGradient x1="50%" y1="0%" x2="50%" y2="123.167203%" id="linearGradient-7">
            <stop stop-color="#363767" offset="0%"></stop>
            <stop stop-color="#32335A" offset="100%"></stop>
        </linearGradient>
        <linearGradient x1="0%" y1="49.8451059%" x2="89.251512%" y2="50.1548941%" id="linearGradient-8">
            <stop stop-color="#424370" offset="0%"></stop>
            <stop stop-color="#424370" stop-opacity="0.25" offset="100%"></stop>
        </linearGradient>
        <linearGradient x1="0%" y1="49.8451059%" x2="89.4004483%" y2="50.1548941%" id="linearGradient-9">
            <stop stop-color="#424370" offset="0%"></stop>
            <stop stop-color="#424370" stop-opacity="0.25" offset="100%"></stop>
        </linearGradient>
    </defs>
    <g id="页面-1" stroke="none" stroke-width="1" fill="none" fill-rule="evenodd">
        <g id="顶部装饰">
            <mask id="mask-2" fill="white">
                <use xlink:href="#path-1"></use>
            </mask>
            <g id="矩形"></g>
            <path d="M1420,-2 L1395.27986,16.1280999 C1391.84952,18.6436821 1387.70646,20 1383.45259,20 L1087.241,20 C1082.56227,20 1078.03161,21.6403244 1074.43731,24.6355744 L1025.56269,65.3644256 C1021.96839,68.3596756 1017.43773,70 1012.759,70 L587.240999,70 C582.562269,70 578.031611,68.3596756 574.437311,65.3644256 L525.562689,24.6355744 C521.968389,21.6403244 517.437731,20 512.759001,20 L216.54741,20 C212.293543,20 208.150476,18.6436821 204.720136,16.1280999 L180,-2 L180,-2 L1420,-2 Z" id="矩形" fill="url(#radialGradient-3)" mask="url(#mask-2)"></path>
            <path d="M1418.13123,-2 L1395.27986,15.1280999 C1391.84952,17.6436821 1387.70646,19 1383.45259,19 L1087.241,19 C1082.56227,19 1078.03161,20.6403244 1074.43731,23.6355744 L1025.56269,64.3644256 C1021.96839,67.3596756 1017.43773,69 1012.759,69 L587.240999,69 C582.562269,69 578.031611,67.3596756 574.437311,64.3644256 L525.562689,23.6355744 C521.968389,20.6403244 517.437731,19 512.759001,19 L216.54741,19 C212.293543,19 208.150476,17.6436821 204.720136,15.1280999 L182.725934,-1.41177833" id="路径" stroke="url(#radialGradient-4)" stroke-width="2" mask="url(#mask-2)"></path>
            <path d="M1395.27986,15.1280999 C1391.84952,17.6436821 1387.70646,19 1383.45259,19 L1087.241,19 C1082.56227,19 1078.03161,20.6403244 1074.43731,23.6355744 L1025.56269,64.3644256 C1021.96839,67.3596756 1017.43773,69 1012.759,69 L587.240999,69 C582.562269,69 578.031611,67.3596756 574.437311,64.3644256 L525.562689,23.6355744 C521.968389,20.6403244 517.437731,19 512.759001,19 L216.54741,19 C212.293543,19 208.150476,17.6436821 204.720136,15.1280999" id="路径" stroke="url(#radialGradient-5)" stroke-width="2" mask="url(#mask-2)"></path>
            <path d="M122,-2 L154,-2 L181.53672,18.193595 C181.982086,18.5201961 182.078363,19.1459985 181.751762,19.5913637 C181.563387,19.8482388 181.2639,20 180.945357,20 L158.54741,20 C154.293543,20 150.150476,18.6436821 146.720136,16.1280999 L122,-2 L122,-2 Z" id="矩形" fill="url(#linearGradient-6)" mask="url(#mask-2)"></path>
            <path d="M1474,-2 L1506,-2 L1533.53672,18.193595 C1533.98209,18.5201961 1534.07836,19.1459985 1533.75176,19.5913637 C1533.56339,19.8482388 1533.2639,20 1532.94536,20 L1510.54741,20 C1506.29354,20 1502.15048,18.6436821 1498.72014,16.1280999 L1474,-2 L1474,-2 Z" id="矩形备份-9" fill="url(#linearGradient-7)" mask="url(#mask-2)" transform="translate(1505.000000, 9.000000) scale(-1, 1) translate(-1505.000000, -9.000000) "></path>
            <path d="M64,-2 L96,-2 L123.53672,18.193595 C123.982086,18.5201961 124.078363,19.1459985 123.751762,19.5913637 C123.563387,19.8482388 123.2639,20 122.945357,20 L100.54741,20 C96.2935428,20 92.1504756,18.6436821 88.7201363,16.1280999 L64,-2 L64,-2 Z" id="矩形备份-2" fill="url(#linearGradient-6)" mask="url(#mask-2)"></path>
            <path d="M1416,-2 L1448,-2 L1475.53672,18.193595 C1475.98209,18.5201961 1476.07836,19.1459985 1475.75176,19.5913637 C1475.56339,19.8482388 1475.2639,20 1474.94536,20 L1452.54741,20 C1448.29354,20 1444.15048,18.6436821 1440.72014,16.1280999 L1416,-2 L1416,-2 Z" id="矩形备份-10" fill="url(#linearGradient-7)" mask="url(#mask-2)" transform="translate(1447.000000, 9.000000) scale(-1, 1) translate(-1447.000000, -9.000000) "></path>
            <g id="编组-13" mask="url(#mask-2)">
                <g transform="translate(-62.000000, 18.000000)">
                    <path d="M0,0 L395.759001,0 C400.437731,-9.1485811e-14 404.968389,1.64032439 408.562689,4.63557441 L433.437311,25.3644256 C437.031611,28.3596756 441.562269,30 446.240999,30 L539,30 L539,30" id="路径" stroke="url(#linearGradient-8)" stroke-width="2" fill="none" transform="translate(269.500000, 15.000000) scale(-1, -1) translate(-269.500000, -15.000000) "></path>
                    <path d="M526.414214,29 L545.585786,29 C545.851003,29 546.105357,29.1053568 546.292893,29.2928932 L550.292893,33.2928932 C550.683418,33.6834175 550.683418,34.3165825 550.292893,34.7071068 C550.105357,34.8946432 549.851003,35 549.585786,35 L530.414214,35 C530.148997,35 529.894643,34.8946432 529.707107,34.7071068 L525.707107,30.7071068 C525.316582,30.3165825 525.316582,29.6834175 525.707107,29.2928932 C525.894643,29.1053568 526.148997,29 526.414214,29 Z" id="矩形" stroke="none" fill="#5B5C93" fill-rule="evenodd"></path>
                </g>
            </g>
            <g id="编组-13备份" mask="url(#mask-2)">
                <g transform="translate(1386.000000, 35.500000) scale(-1, 1) translate(-1386.000000, -35.500000) translate(1110.000000, 18.000000)">
                    <path d="M0,0 L395.759001,0 C400.437731,-9.1485811e-14 404.968389,1.64032439 408.562689,4.63557441 L433.437311,25.3644256 C437.031611,28.3596756 441.562269,30 446.240999,30 L539,30 L539,30" id="路径" stroke="url(#linearGradient-9)" stroke-width="2" fill="none" transform="translate(269.500000, 15.000000) scale(-1, -1) translate(-269.500000, -15.000000) "></path>
                    <path d="M526.414214,29 L545.585786,29 C545.851003,29 546.105357,29.1053568 546.292893,29.2928932 L550.292893,33.2928932 C550.683418,33.6834175 550.683418,34.3165825 550.292893,34.7071068 C550.105357,34.8946432 549.851003,35 549.585786,35 L530.414214,35 C530.148997,35 529.894643,34.8946432 529.707107,34.7071068 L525.707107,30.7071068 C525.316582,30.3165825 525.316582,29.6834175 525.707107,29.2928932 C525.894643,29.1053568 526.148997,29 526.414214,29 Z" id="矩形" stroke="none" fill="#5B5C93" fill-rule="evenodd"></path>
                </g>
            </g>
            <g id="编组-3" mask="url(#mask-2)" fill="#505281">
                <g transform="translate(1059.000000, 58.000000)" id="矩形">
                    <path d="M1.5547002,1.0364668 L4.75192456,3.16794971 C5.21145325,3.47430216 5.33562712,4.09517151 5.02927466,4.5547002 C4.9560398,4.66455248 4.86177685,4.75881544 4.75192456,4.83205029 L1.5547002,6.9635332 C1.09517151,7.26988566 0.474302165,7.14571179 0.167949706,6.6861831 C0.0584380275,6.52191559 2.41775877e-17,6.32890789 0,6.13148291 L0,1.86851709 C1.5440923e-16,1.31623234 0.44771525,0.868517092 1,0.868517092 C1.19742499,0.868517092 1.39043268,0.926955119 1.5547002,1.0364668 Z"></path>
                    <path d="M11.5547002,1.0364668 L14.7519246,3.16794971 C15.2114532,3.47430216 15.3356271,4.09517151 15.0292747,4.5547002 C14.9560398,4.66455248 14.8617768,4.75881544 14.7519246,4.83205029 L11.5547002,6.9635332 C11.0951715,7.26988566 10.4743022,7.14571179 10.1679497,6.6861831 C10.058438,6.52191559 10,6.32890789 10,6.13148291 L10,1.86851709 C10,1.31623234 10.4477153,0.868517092 11,0.868517092 C11.197425,0.868517092 11.3904327,0.926955119 11.5547002,1.0364668 Z"></path>
                    <path d="M21.5547002,1.0364668 L24.7519246,3.16794971 C25.2114532,3.47430216 25.3356271,4.09517151 25.0292747,4.5547002 C24.9560398,4.66455248 24.8617768,4.75881544 24.7519246,4.83205029 L21.5547002,6.9635332 C21.0951715,7.26988566 20.4743022,7.14571179 20.1679497,6.6861831 C20.058438,6.52191559 20,6.32890789 20,6.13148291 L20,1.86851709 C20,1.31623234 20.4477153,0.868517092 21,0.868517092 C21.197425,0.868517092 21.3904327,0.926955119 21.5547002,1.0364668 Z"></path>
                </g>
            </g>
            <text id="TRANSACTION" mask="url(#mask-2)" font-family="Arial-BoldMT, Arial MT" font-size="12" font-weight="bold" line-spacing="12" letter-spacing="1" fill="#494B77">
                <tspan x="1366" y="75">TRANSACTION</tspan>
            </text>
            <text id="USED-CAR" mask="url(#mask-2)" font-family="Arial-BoldMT, Arial MT" font-size="12" font-weight="bold" line-spacing="12" letter-spacing="1" fill="#6F719F">
                <tspan x="172" y="41">USED CAR</tspan>
            </text>
            <text id="AUCTION备份" mask="url(#mask-2)" font-family="Arial-BoldMT, Arial MT" font-size="12" font-weight="bold" line-spacing="12" letter-spacing="1" fill="#494B77">
                <tspan x="253" y="41">AUCTION</tspan>
            </text>
        </g>
    </g>
</svg>