<?xml version="1.0" encoding="UTF-8"?>
<svg width="84px" height="34px" viewBox="0 0 84 34" version="1.1" xmlns="http://www.w3.org/2000/svg" xmlns:xlink="http://www.w3.org/1999/xlink">
    <title>批量拍标签@2x</title>
    <defs>
        <linearGradient x1="0%" y1="41.7493551%" x2="100%" y2="58.2506449%" id="linearGradient-1">
            <stop stop-color="#F1D695" offset="0%"></stop>
            <stop stop-color="#D1AF5E" offset="100%"></stop>
        </linearGradient>
    </defs>
    <g id="页面-1" stroke="none" stroke-width="1" fill="none" fill-rule="evenodd">
        <g id="二手车在拍车辆投屏" transform="translate(-433.000000, -202.000000)" fill="url(#linearGradient-1)">
            <g id="车辆详情" transform="translate(50.000000, 154.000000)">
                <g id="批量拍标签" transform="translate(383.150529, 48.000000)">
                    <path d="M72.1376235,0 C76.0195521,1.06325813e-15 79.3412697,2.78685789 80.015892,6.60971733 L83.6066398,26.957288 C84.1825137,30.2205736 82.0039361,33.3328274 78.7406504,33.9087014 C78.396403,33.9694509 78.047505,34 77.6979384,34 L11.5613191,34 C7.67939049,34 4.35767284,31.2131421 3.68305059,27.3902827 L0.0923028263,7.042712 C-0.483571112,3.77942635 1.69500653,0.667172585 4.95829218,0.0912986471 C5.30253964,0.0305490949 5.65143756,9.52392766e-16 6.00100418,0 L72.1376235,0 Z M14.4374713,6.96 L12.4134713,6.96 L12.4134713,10.854 L10.1034713,10.854 L10.1034713,12.856 L12.4134713,12.856 L12.4134713,17.784 C11.5554713,18.026 10.6974713,18.224 9.8394713,18.4 L10.3234713,20.402 C11.0054713,20.226 11.7094713,20.028 12.4134713,19.808 L12.4134713,24.428 C12.4134713,24.956 12.1494713,25.22 11.6434713,25.22 C11.1154713,25.22 10.5874713,25.176 10.0374713,25.088 L10.4774713,27.134 L12.3694713,27.134 C13.7334713,27.134 14.4374713,26.408 14.4374713,24.956 L14.4374713,19.126 C15.0534713,18.884 15.6914713,18.642 16.3294713,18.378 L16.3294713,16.398 C15.7134713,16.662 15.0754713,16.926 14.4374713,17.146 L14.4374713,12.856 L16.4394713,12.856 L16.4394713,10.854 L14.4374713,10.854 L14.4374713,6.96 Z M66.1594713,6.894 C66.0274713,7.994 65.8294713,9.072 65.5654713,10.128 L62.1774713,10.128 L62.1774713,27.112 L64.2454713,27.112 L64.2454713,26.166 L70.8454713,26.166 L70.8454713,27.046 L72.9574713,27.046 L72.9574713,10.128 L67.6334713,10.128 C67.8974713,9.226 68.1174713,8.236 68.2714713,7.18 L66.1594713,6.894 Z M58.9434713,7.026 L56.8534713,7.026 L56.8534713,10.832 L53.9934713,10.832 L53.9934713,12.834 L56.8534713,12.834 L56.8534713,17.476 C55.8414713,17.828 54.8074713,18.136 53.7514713,18.378 L54.2574713,20.49 C55.1374713,20.204 55.9954713,19.896 56.8534713,19.566 L56.8534713,24.384 C56.8534713,24.912 56.5674713,25.176 56.0394713,25.176 C55.5114713,25.176 54.9394713,25.132 54.3454713,25.066 L54.8294713,27.09 L56.7654713,27.09 C58.2174713,27.09 58.9434713,26.364 58.9434713,24.912 L58.9434713,18.686 C59.6914713,18.334 60.4614713,17.982 61.2094713,17.586 L61.2094713,15.474 C60.4614713,15.87 59.7134713,16.266 58.9434713,16.618 L58.9434713,12.834 L61.1874713,12.834 L61.1874713,10.832 L58.9434713,10.832 L58.9434713,7.026 Z M19.2554713,7.092 L17.1874713,7.092 L17.1874713,23.878 C17.1874713,24.494 16.8794713,24.912 16.2854713,25.11 L16.8134713,27.046 C18.8374713,26.562 20.6414713,26.012 22.2034713,25.374 L21.8294713,23.46 C21.0374713,23.834 20.1794713,24.142 19.2554713,24.406 L19.2554713,15.364 L22.0714713,15.364 L22.0714713,13.34 L19.2554713,13.34 L19.2554713,7.092 Z M24.9754713,7.026 L22.9074713,7.026 L22.9074713,24.714 C22.9074713,26.232 23.6114713,27.002 25.0414713,27.002 L26.9774713,27.002 C27.8354713,27.002 28.4514713,26.76 28.8474713,26.32 C29.2874713,25.836 29.5954713,24.318 29.7714713,21.788 L27.8794713,21.172 C27.8134713,23.064 27.6814713,24.186 27.4614713,24.538 C27.2854713,24.868 26.9994713,25.044 26.6034713,25.044 L25.7014713,25.044 C25.2174713,25.044 24.9754713,24.78 24.9754713,24.252 L24.9754713,15.342 C26.4274713,14.858 27.9894713,14.176 29.6394713,13.296 L28.4294713,11.602 C27.3294713,12.306 26.1634713,12.856 24.9754713,13.274 L24.9754713,7.026 Z M49.7034713,16.2 L34.0394713,16.2 L34.0394713,21.92 L40.7934713,21.92 L40.7934713,22.888 L33.5994713,22.888 L33.5994713,24.23 L40.7934713,24.23 L40.7934713,25.264 L31.9494713,25.264 L31.9494713,26.848 L51.7494713,26.848 L51.7494713,25.264 L42.8614713,25.264 L42.8614713,24.23 L50.1434713,24.23 L50.1434713,22.888 L42.8614713,22.888 L42.8614713,21.92 L49.7034713,21.92 L49.7034713,16.2 Z M70.8454713,19.06 L70.8454713,24.12 L64.2454713,24.12 L64.2454713,19.06 L70.8454713,19.06 Z M47.7234713,19.632 L47.7234713,20.688 L42.8614713,20.688 L42.8614713,19.632 L47.7234713,19.632 Z M40.7934713,19.632 L40.7934713,20.688 L36.0194713,20.688 L36.0194713,19.632 L40.7934713,19.632 Z M40.7934713,17.432 L40.7934713,18.488 L36.0194713,18.488 L36.0194713,17.432 L40.7934713,17.432 Z M47.7234713,17.432 L47.7234713,18.488 L42.8614713,18.488 L42.8614713,17.432 L47.7234713,17.432 Z M70.8454713,12.13 L70.8454713,17.014 L64.2454713,17.014 L64.2454713,12.13 L70.8454713,12.13 Z M51.7494713,13.802 L31.9494713,13.802 L31.9494713,15.298 L51.7494713,15.298 L51.7494713,13.802 Z M49.2414713,7.29 L34.5234713,7.29 L34.5234713,12.878 L49.2414713,12.878 L49.2414713,7.29 Z M47.2394713,10.678 L47.2394713,11.69 L36.5254713,11.69 L36.5254713,10.678 L47.2394713,10.678 Z M47.2394713,8.5 L47.2394713,9.49 L36.5254713,9.49 L36.5254713,8.5 L47.2394713,8.5 Z" id="形状结合"></path>
                </g>
            </g>
        </g>
    </g>
</svg>