<?xml version="1.0" encoding="UTF-8"?>
<svg width="750px" height="440px" viewBox="0 0 750 440" version="1.1" xmlns="http://www.w3.org/2000/svg" xmlns:xlink="http://www.w3.org/1999/xlink">
    <title>车辆详情底框@2x</title>
    <defs>
        <linearGradient x1="93.979409%" y1="15.4203966%" x2="90.7484887%" y2="58.0556065%" id="linearGradient-1">
            <stop stop-color="#3C3E76" offset="0%"></stop>
            <stop stop-color="#282B51" offset="99.94955%"></stop>
        </linearGradient>
        <path d="M8,0 L742,0 C746.418278,-8.11624501e-16 750,3.581722 750,8 L750,432 C750,436.418278 746.418278,440 742,440 L8,440 C3.581722,440 5.41083001e-16,436.418278 0,432 L0,8 C-5.41083001e-16,3.581722 3.581722,8.11624501e-16 8,0 Z" id="path-2"></path>
        <radialGradient cx="39.1456917%" cy="29.7272547%" fx="39.1456917%" fy="29.7272547%" r="56.1770968%" gradientTransform="translate(0.391457,0.297273),scale(0.986547,1.000000),rotate(44.959568),scale(1.000000,1.354761),translate(-0.391457,-0.297273)" id="radialGradient-4">
            <stop stop-color="#4A4C76" offset="0.00256091565%"></stop>
            <stop stop-color="#4A4C76" stop-opacity="0" offset="99.9060998%"></stop>
        </radialGradient>
        <radialGradient cx="50%" cy="62.0036906%" fx="50%" fy="62.0036906%" r="44.715625%" gradientTransform="translate(0.500000,0.620037),scale(0.986547,1.000000),rotate(44.956808),scale(1.000000,1.557263),translate(-0.500000,-0.620037)" id="radialGradient-5">
            <stop stop-color="#393B62" offset="0.00256091565%"></stop>
            <stop stop-color="#393B62" stop-opacity="0" offset="99.9060998%"></stop>
        </radialGradient>
        <linearGradient x1="100%" y1="23.8164102%" x2="92.7139785%" y2="67.2088889%" id="linearGradient-6">
            <stop stop-color="#6466A1" offset="0%"></stop>
            <stop stop-color="#6466A1" stop-opacity="0.25" offset="100%"></stop>
        </linearGradient>
        <radialGradient cx="74.6592593%" cy="-11.3770417%" fx="74.6592593%" fy="-11.3770417%" r="36.5249937%" gradientTransform="translate(0.746593,-0.113770),scale(0.586667,1.000000),rotate(113.550075),translate(-0.746593,0.113770)" id="radialGradient-7">
            <stop stop-color="#D7D8F5" offset="0%"></stop>
            <stop stop-color="#D7D8F5" stop-opacity="0" offset="100%"></stop>
        </radialGradient>
    </defs>
    <g id="页面-1" stroke="none" stroke-width="1" fill="none" fill-rule="evenodd">
        <g id="二手车在拍车辆投屏" transform="translate(-50.000000, -154.000000)">
            <g id="车辆详情底框" transform="translate(50.000000, 154.000000)">
                <mask id="mask-3" fill="white">
                    <use xlink:href="#path-2"></use>
                </mask>
                <use id="矩形" fill="url(#linearGradient-1)" xlink:href="#path-2"></use>
                <path d="M426,-201 L426,239 L424,239 L424,-201 L426,-201 Z M420,-201 L420,239 L418,239 L418,-201 L420,-201 Z M414,-201 L414,239 L412,239 L412,-201 L414,-201 Z M408,-201 L408,239 L406,239 L406,-201 L408,-201 Z M402,-201 L402,239 L400,239 L400,-201 L402,-201 Z M396,-201 L396,239 L394,239 L394,-201 L396,-201 Z M390,-201 L390,239 L388,239 L388,-201 L390,-201 Z M384,-201 L384,239 L382,239 L382,-201 L384,-201 Z M378,-201 L378,239 L376,239 L376,-201 L378,-201 Z M372,-201 L372,239 L370,239 L370,-201 L372,-201 Z M366,-201 L366,239 L364,239 L364,-201 L366,-201 Z M360,-201 L360,239 L358,239 L358,-201 L360,-201 Z M354,-201 L354,239 L352,239 L352,-201 L354,-201 Z M348,-201 L348,239 L346,239 L346,-201 L348,-201 Z M342,-201 L342,239 L340,239 L340,-201 L342,-201 Z M336,-201 L336,239 L334,239 L334,-201 L336,-201 Z M330,-201 L330,239 L328,239 L328,-201 L330,-201 Z M324,-201 L324,239 L322,239 L322,-201 L324,-201 Z M318,-201 L318,239 L316,239 L316,-201 L318,-201 Z M312,-201 L312,239 L310,239 L310,-201 L312,-201 Z M306,-201 L306,239 L304,239 L304,-201 L306,-201 Z M300,-201 L300,239 L298,239 L298,-201 L300,-201 Z M294,-201 L294,239 L292,239 L292,-201 L294,-201 Z M288,-201 L288,239 L286,239 L286,-201 L288,-201 Z M432,-201 L432,239 L430,239 L430,-201 L432,-201 Z M438,-201 L438,239 L436,239 L436,-201 L438,-201 Z M444,-201 L444,239 L442,239 L442,-201 L444,-201 Z M450,-201 L450,239 L448,239 L448,-201 L450,-201 Z M456,-201 L456,239 L454,239 L454,-201 L456,-201 Z M462,-201 L462,239 L460,239 L460,-201 L462,-201 Z M468,-201 L468,239 L466,239 L466,-201 L468,-201 Z M474,-201 L474,239 L472,239 L472,-201 L474,-201 Z M480,-201 L480,239 L478,239 L478,-201 L480,-201 Z M486,-201 L486,239 L484,239 L484,-201 L486,-201 Z M492,-201 L492,239 L490,239 L490,-201 L492,-201 Z M498,-201 L498,239 L496,239 L496,-201 L498,-201 Z M504,-201 L504,239 L502,239 L502,-201 L504,-201 Z M510,-201 L510,239 L508,239 L508,-201 L510,-201 Z M516,-201 L516,239 L514,239 L514,-201 L516,-201 Z M522,-201 L522,239 L520,239 L520,-201 L522,-201 Z M528,-201 L528,239 L526,239 L526,-201 L528,-201 Z M534,-201 L534,239 L532,239 L532,-201 L534,-201 Z M540,-201 L540,239 L538,239 L538,-201 L540,-201 Z M546,-201 L546,239 L544,239 L544,-201 L546,-201 Z M552,-201 L552,239 L550,239 L550,-201 L552,-201 Z M558,-201 L558,239 L556,239 L556,-201 L558,-201 Z M564,-201 L564,239 L562,239 L562,-201 L564,-201 Z M570,-201 L570,239 L568,239 L568,-201 L570,-201 Z M576,-201 L576,239 L574,239 L574,-201 L576,-201 Z M582,-201 L582,239 L580,239 L580,-201 L582,-201 Z M588,-201 L588,239 L586,239 L586,-201 L588,-201 Z M594,-201 L594,239 L592,239 L592,-201 L594,-201 Z M600,-201 L600,239 L598,239 L598,-201 L600,-201 Z M606,-201 L606,239 L604,239 L604,-201 L606,-201 Z M612,-201 L612,239 L610,239 L610,-201 L612,-201 Z M618,-201 L618,239 L616,239 L616,-201 L618,-201 Z M624,-201 L624,239 L622,239 L622,-201 L624,-201 Z M630,-201 L630,239 L628,239 L628,-201 L630,-201 Z M636,-201 L636,239 L634,239 L634,-201 L636,-201 Z M642,-201 L642,239 L640,239 L640,-201 L642,-201 Z M648,-201 L648,239 L646,239 L646,-201 L648,-201 Z M654,-201 L654,239 L652,239 L652,-201 L654,-201 Z M660,-201 L660,239 L658,239 L658,-201 L660,-201 Z M666,-201 L666,239 L664,239 L664,-201 L666,-201 Z M672,-201 L672,239 L670,239 L670,-201 L672,-201 Z M678,-201 L678,239 L676,239 L676,-201 L678,-201 Z M684,-201 L684,239 L682,239 L682,-201 L684,-201 Z M690,-201 L690,239 L688,239 L688,-201 L690,-201 Z M696,-201 L696,239 L694,239 L694,-201 L696,-201 Z M702,-201 L702,239 L700,239 L700,-201 L702,-201 Z M708,-201 L708,239 L706,239 L706,-201 L708,-201 Z M714,-201 L714,239 L712,239 L712,-201 L714,-201 Z M720,-201 L720,239 L718,239 L718,-201 L720,-201 Z M726,-201 L726,239 L724,239 L724,-201 L726,-201 Z M732,-201 L732,239 L730,239 L730,-201 L732,-201 Z" id="形状结合" fill="url(#radialGradient-4)" mask="url(#mask-3)" transform="translate(509.000000, 19.000000) rotate(45.000000) translate(-509.000000, -19.000000) "></path>
                <path d="M27,255 L27,695 L25,695 L25,255 L27,255 Z M21,255 L21,695 L19,695 L19,255 L21,255 Z M15,255 L15,695 L13,695 L13,255 L15,255 Z M9,255 L9,695 L7,695 L7,255 L9,255 Z M3,255 L3,695 L1,695 L1,255 L3,255 Z M-3,255 L-3,695 L-5,695 L-5,255 L-3,255 Z M-9,255 L-9,695 L-11,695 L-11,255 L-9,255 Z M-15,255 L-15,695 L-17,695 L-17,255 L-15,255 Z M-21,255 L-21,695 L-23,695 L-23,255 L-21,255 Z M-27,255 L-27,695 L-29,695 L-29,255 L-27,255 Z M-33,255 L-33,695 L-35,695 L-35,255 L-33,255 Z M-39,255 L-39,695 L-41,695 L-41,255 L-39,255 Z M-45,255 L-45,695 L-47,695 L-47,255 L-45,255 Z M-51,255 L-51,695 L-53,695 L-53,255 L-51,255 Z M-57,255 L-57,695 L-59,695 L-59,255 L-57,255 Z M-63,255 L-63,695 L-65,695 L-65,255 L-63,255 Z M-69,255 L-69,695 L-71,695 L-71,255 L-69,255 Z M-75,255 L-75,695 L-77,695 L-77,255 L-75,255 Z M-81,255 L-81,695 L-83,695 L-83,255 L-81,255 Z M-87,255 L-87,695 L-89,695 L-89,255 L-87,255 Z M-93,255 L-93,695 L-95,695 L-95,255 L-93,255 Z M-99,255 L-99,695 L-101,695 L-101,255 L-99,255 Z M-105,255 L-105,695 L-107,695 L-107,255 L-105,255 Z M-111,255 L-111,695 L-113,695 L-113,255 L-111,255 Z M33,255 L33,695 L31,695 L31,255 L33,255 Z M39,255 L39,695 L37,695 L37,255 L39,255 Z M45,255 L45,695 L43,695 L43,255 L45,255 Z M51,255 L51,695 L49,695 L49,255 L51,255 Z M57,255 L57,695 L55,695 L55,255 L57,255 Z M63,255 L63,695 L61,695 L61,255 L63,255 Z M69,255 L69,695 L67,695 L67,255 L69,255 Z M75,255 L75,695 L73,695 L73,255 L75,255 Z M81,255 L81,695 L79,695 L79,255 L81,255 Z M87,255 L87,695 L85,695 L85,255 L87,255 Z M93,255 L93,695 L91,695 L91,255 L93,255 Z M99,255 L99,695 L97,695 L97,255 L99,255 Z M105,255 L105,695 L103,695 L103,255 L105,255 Z M111,255 L111,695 L109,695 L109,255 L111,255 Z M117,255 L117,695 L115,695 L115,255 L117,255 Z M123,255 L123,695 L121,695 L121,255 L123,255 Z M129,255 L129,695 L127,695 L127,255 L129,255 Z M135,255 L135,695 L133,695 L133,255 L135,255 Z M141,255 L141,695 L139,695 L139,255 L141,255 Z M147,255 L147,695 L145,695 L145,255 L147,255 Z M153,255 L153,695 L151,695 L151,255 L153,255 Z M159,255 L159,695 L157,695 L157,255 L159,255 Z M165,255 L165,695 L163,695 L163,255 L165,255 Z M171,255 L171,695 L169,695 L169,255 L171,255 Z M177,255 L177,695 L175,695 L175,255 L177,255 Z M183,255 L183,695 L181,695 L181,255 L183,255 Z M189,255 L189,695 L187,695 L187,255 L189,255 Z M195,255 L195,695 L193,695 L193,255 L195,255 Z M201,255 L201,695 L199,695 L199,255 L201,255 Z M207,255 L207,695 L205,695 L205,255 L207,255 Z M213,255 L213,695 L211,695 L211,255 L213,255 Z M219,255 L219,695 L217,695 L217,255 L219,255 Z M225,255 L225,695 L223,695 L223,255 L225,255 Z M231,255 L231,695 L229,695 L229,255 L231,255 Z M237,255 L237,695 L235,695 L235,255 L237,255 Z M243,255 L243,695 L241,695 L241,255 L243,255 Z M249,255 L249,695 L247,695 L247,255 L249,255 Z M255,255 L255,695 L253,695 L253,255 L255,255 Z M261,255 L261,695 L259,695 L259,255 L261,255 Z M267,255 L267,695 L265,695 L265,255 L267,255 Z M273,255 L273,695 L271,695 L271,255 L273,255 Z M279,255 L279,695 L277,695 L277,255 L279,255 Z M285,255 L285,695 L283,695 L283,255 L285,255 Z M291,255 L291,695 L289,695 L289,255 L291,255 Z M297,255 L297,695 L295,695 L295,255 L297,255 Z M303,255 L303,695 L301,695 L301,255 L303,255 Z M309,255 L309,695 L307,695 L307,255 L309,255 Z M315,255 L315,695 L313,695 L313,255 L315,255 Z M321,255 L321,695 L319,695 L319,255 L321,255 Z M327,255 L327,695 L325,695 L325,255 L327,255 Z M333,255 L333,695 L331,695 L331,255 L333,255 Z" id="形状结合备份" fill="url(#radialGradient-5)" mask="url(#mask-3)" transform="translate(110.000000, 475.000000) rotate(45.000000) translate(-110.000000, -475.000000) "></path>
                <path d="M742,1 C743.932997,1 745.682997,1.78350169 746.949747,3.05025253 C748.216498,4.31700338 749,6.06700338 749,8 L749,8 L749,432 C749,433.932997 748.216498,435.682997 746.949747,436.949747 C745.682997,438.216498 743.932997,439 742,439 L742,439 L8,439 C6.06700338,439 4.31700338,438.216498 3.05025253,436.949747 C1.78350169,435.682997 1,433.932997 1,432 L1,432 L1,8 C1,6.06700338 1.78350169,4.31700338 3.05025253,3.05025253 C4.31700338,1.78350169 6.06700338,1 8,1 L8,1 Z" id="矩形" stroke="url(#linearGradient-6)" stroke-width="2" mask="url(#mask-3)"></path>
                <path d="M742,1 C743.932997,1 745.682997,1.78350169 746.949747,3.05025253 C748.216498,4.31700338 749,6.06700338 749,8 L749,8 L749,432 C749,433.932997 748.216498,435.682997 746.949747,436.949747 C745.682997,438.216498 743.932997,439 742,439 L742,439 L8,439 C6.06700338,439 4.31700338,438.216498 3.05025253,436.949747 C1.78350169,435.682997 1,433.932997 1,432 L1,432 L1,8 C1,6.06700338 1.78350169,4.31700338 3.05025253,3.05025253 C4.31700338,1.78350169 6.06700338,1 8,1 L8,1 Z" id="矩形" stroke="url(#radialGradient-7)" stroke-width="2" mask="url(#mask-3)"></path>
            </g>
        </g>
    </g>
</svg>