<?xml version="1.0" encoding="UTF-8"?>
<svg width="750px" height="196px" viewBox="0 0 750 196" version="1.1" xmlns="http://www.w3.org/2000/svg" xmlns:xlink="http://www.w3.org/1999/xlink">
    <title>出价底框@2x</title>
    <defs>
        <linearGradient x1="100%" y1="40.523786%" x2="91.8914167%" y2="54.3907113%" id="linearGradient-1">
            <stop stop-color="#353761" offset="0%"></stop>
            <stop stop-color="#2A2C50" offset="100%"></stop>
        </linearGradient>
        <path d="M8,0 L742,0 C746.418278,-1.69980292e-15 750,3.581722 750,8 L750,188 C750,192.418278 746.418278,196 742,196 L8,196 C3.581722,196 5.41083001e-16,192.418278 0,188 L0,8 C-5.41083001e-16,3.581722 3.581722,8.11624501e-16 8,0 Z" id="path-2"></path>
        <linearGradient x1="100%" y1="40.523786%" x2="91.8914167%" y2="54.3907113%" id="linearGradient-4">
            <stop stop-color="#363866" offset="0%"></stop>
            <stop stop-color="#2A2C50" offset="100%"></stop>
        </linearGradient>
        <radialGradient cx="79.9520382%" cy="50%" fx="79.9520382%" fy="50%" r="56.1229077%" gradientTransform="translate(0.799520,0.500000),scale(0.986547,1.000000),rotate(44.959568),scale(1.000000,1.354761),translate(-0.799520,-0.500000)" id="radialGradient-5">
            <stop stop-color="#383966" offset="0.00256091565%"></stop>
            <stop stop-color="#383966" stop-opacity="0" offset="99.9060998%"></stop>
        </radialGradient>
        <linearGradient x1="96.1443034%" y1="43.520875%" x2="92.3152018%" y2="54.1716524%" id="linearGradient-6">
            <stop stop-color="#4C4F85" offset="0%"></stop>
            <stop stop-color="#4B4C79" stop-opacity="0.25" offset="100%"></stop>
        </linearGradient>
        <path d="M8,0 L742,0 C746.418278,-1.69980292e-15 750,3.581722 750,8 L750,188 C750,192.418278 746.418278,196 742,196 L8,196 C3.581722,196 5.41083001e-16,192.418278 0,188 L0,8 C-5.41083001e-16,3.581722 3.581722,8.11624501e-16 8,0 Z" id="path-7"></path>
    </defs>
    <g id="页面-1" stroke="none" stroke-width="1" fill="none" fill-rule="evenodd">
        <g id="二手车在拍车辆投屏" transform="translate(-50.000000, -614.000000)">
            <g id="出价底框" transform="translate(50.000000, 614.000000)">
                <mask id="mask-3" fill="white">
                    <use xlink:href="#path-2"></use>
                </mask>
                <use id="蒙版" fill="url(#linearGradient-1)" xlink:href="#path-2"></use>
                <path d="M8,0 L742,0 C746.418278,-1.69980292e-15 750,3.581722 750,8 L750,188 C750,192.418278 746.418278,196 742,196 L8,196 C3.581722,196 5.41083001e-16,192.418278 0,188 L0,8 C-5.41083001e-16,3.581722 3.581722,8.11624501e-16 8,0 Z" id="蒙版" fill="url(#linearGradient-4)" mask="url(#mask-3)"></path>
                <path d="M473.248304,-106.751696 L473.248304,333.248304 L471.248304,333.248304 L471.248304,-106.751696 L473.248304,-106.751696 Z M467.248304,-106.751696 L467.248304,333.248304 L465.248304,333.248304 L465.248304,-106.751696 L467.248304,-106.751696 Z M461.248304,-106.751696 L461.248304,333.248304 L459.248304,333.248304 L459.248304,-106.751696 L461.248304,-106.751696 Z M455.248304,-106.751696 L455.248304,333.248304 L453.248304,333.248304 L453.248304,-106.751696 L455.248304,-106.751696 Z M449.248304,-106.751696 L449.248304,333.248304 L447.248304,333.248304 L447.248304,-106.751696 L449.248304,-106.751696 Z M443.248304,-106.751696 L443.248304,333.248304 L441.248304,333.248304 L441.248304,-106.751696 L443.248304,-106.751696 Z M437.248304,-106.751696 L437.248304,333.248304 L435.248304,333.248304 L435.248304,-106.751696 L437.248304,-106.751696 Z M431.248304,-106.751696 L431.248304,333.248304 L429.248304,333.248304 L429.248304,-106.751696 L431.248304,-106.751696 Z M425.248304,-106.751696 L425.248304,333.248304 L423.248304,333.248304 L423.248304,-106.751696 L425.248304,-106.751696 Z M419.248304,-106.751696 L419.248304,333.248304 L417.248304,333.248304 L417.248304,-106.751696 L419.248304,-106.751696 Z M413.248304,-106.751696 L413.248304,333.248304 L411.248304,333.248304 L411.248304,-106.751696 L413.248304,-106.751696 Z M407.248304,-106.751696 L407.248304,333.248304 L405.248304,333.248304 L405.248304,-106.751696 L407.248304,-106.751696 Z M401.248304,-106.751696 L401.248304,333.248304 L399.248304,333.248304 L399.248304,-106.751696 L401.248304,-106.751696 Z M395.248304,-106.751696 L395.248304,333.248304 L393.248304,333.248304 L393.248304,-106.751696 L395.248304,-106.751696 Z M389.248304,-106.751696 L389.248304,333.248304 L387.248304,333.248304 L387.248304,-106.751696 L389.248304,-106.751696 Z M383.248304,-106.751696 L383.248304,333.248304 L381.248304,333.248304 L381.248304,-106.751696 L383.248304,-106.751696 Z M377.248304,-106.751696 L377.248304,333.248304 L375.248304,333.248304 L375.248304,-106.751696 L377.248304,-106.751696 Z M371.248304,-106.751696 L371.248304,333.248304 L369.248304,333.248304 L369.248304,-106.751696 L371.248304,-106.751696 Z M365.248304,-106.751696 L365.248304,333.248304 L363.248304,333.248304 L363.248304,-106.751696 L365.248304,-106.751696 Z M359.248304,-106.751696 L359.248304,333.248304 L357.248304,333.248304 L357.248304,-106.751696 L359.248304,-106.751696 Z M353.248304,-106.751696 L353.248304,333.248304 L351.248304,333.248304 L351.248304,-106.751696 L353.248304,-106.751696 Z M347.248304,-106.751696 L347.248304,333.248304 L345.248304,333.248304 L345.248304,-106.751696 L347.248304,-106.751696 Z M341.248304,-106.751696 L341.248304,333.248304 L339.248304,333.248304 L339.248304,-106.751696 L341.248304,-106.751696 Z M335.248304,-106.751696 L335.248304,333.248304 L333.248304,333.248304 L333.248304,-106.751696 L335.248304,-106.751696 Z M479.248304,-106.751696 L479.248304,333.248304 L477.248304,333.248304 L477.248304,-106.751696 L479.248304,-106.751696 Z M485.248304,-106.751696 L485.248304,333.248304 L483.248304,333.248304 L483.248304,-106.751696 L485.248304,-106.751696 Z M491.248304,-106.751696 L491.248304,333.248304 L489.248304,333.248304 L489.248304,-106.751696 L491.248304,-106.751696 Z M497.248304,-106.751696 L497.248304,333.248304 L495.248304,333.248304 L495.248304,-106.751696 L497.248304,-106.751696 Z M503.248304,-106.751696 L503.248304,333.248304 L501.248304,333.248304 L501.248304,-106.751696 L503.248304,-106.751696 Z M509.248304,-106.751696 L509.248304,333.248304 L507.248304,333.248304 L507.248304,-106.751696 L509.248304,-106.751696 Z M515.248304,-106.751696 L515.248304,333.248304 L513.248304,333.248304 L513.248304,-106.751696 L515.248304,-106.751696 Z M521.248304,-106.751696 L521.248304,333.248304 L519.248304,333.248304 L519.248304,-106.751696 L521.248304,-106.751696 Z M527.248304,-106.751696 L527.248304,333.248304 L525.248304,333.248304 L525.248304,-106.751696 L527.248304,-106.751696 Z M533.248304,-106.751696 L533.248304,333.248304 L531.248304,333.248304 L531.248304,-106.751696 L533.248304,-106.751696 Z M539.248304,-106.751696 L539.248304,333.248304 L537.248304,333.248304 L537.248304,-106.751696 L539.248304,-106.751696 Z M545.248304,-106.751696 L545.248304,333.248304 L543.248304,333.248304 L543.248304,-106.751696 L545.248304,-106.751696 Z M551.248304,-106.751696 L551.248304,333.248304 L549.248304,333.248304 L549.248304,-106.751696 L551.248304,-106.751696 Z M557.248304,-106.751696 L557.248304,333.248304 L555.248304,333.248304 L555.248304,-106.751696 L557.248304,-106.751696 Z M563.248304,-106.751696 L563.248304,333.248304 L561.248304,333.248304 L561.248304,-106.751696 L563.248304,-106.751696 Z M569.248304,-106.751696 L569.248304,333.248304 L567.248304,333.248304 L567.248304,-106.751696 L569.248304,-106.751696 Z M575.248304,-106.751696 L575.248304,333.248304 L573.248304,333.248304 L573.248304,-106.751696 L575.248304,-106.751696 Z M581.248304,-106.751696 L581.248304,333.248304 L579.248304,333.248304 L579.248304,-106.751696 L581.248304,-106.751696 Z M587.248304,-106.751696 L587.248304,333.248304 L585.248304,333.248304 L585.248304,-106.751696 L587.248304,-106.751696 Z M593.248304,-106.751696 L593.248304,333.248304 L591.248304,333.248304 L591.248304,-106.751696 L593.248304,-106.751696 Z M599.248304,-106.751696 L599.248304,333.248304 L597.248304,333.248304 L597.248304,-106.751696 L599.248304,-106.751696 Z M605.248304,-106.751696 L605.248304,333.248304 L603.248304,333.248304 L603.248304,-106.751696 L605.248304,-106.751696 Z M611.248304,-106.751696 L611.248304,333.248304 L609.248304,333.248304 L609.248304,-106.751696 L611.248304,-106.751696 Z M617.248304,-106.751696 L617.248304,333.248304 L615.248304,333.248304 L615.248304,-106.751696 L617.248304,-106.751696 Z M623.248304,-106.751696 L623.248304,333.248304 L621.248304,333.248304 L621.248304,-106.751696 L623.248304,-106.751696 Z M629.248304,-106.751696 L629.248304,333.248304 L627.248304,333.248304 L627.248304,-106.751696 L629.248304,-106.751696 Z M635.248304,-106.751696 L635.248304,333.248304 L633.248304,333.248304 L633.248304,-106.751696 L635.248304,-106.751696 Z M641.248304,-106.751696 L641.248304,333.248304 L639.248304,333.248304 L639.248304,-106.751696 L641.248304,-106.751696 Z M647.248304,-106.751696 L647.248304,333.248304 L645.248304,333.248304 L645.248304,-106.751696 L647.248304,-106.751696 Z M653.248304,-106.751696 L653.248304,333.248304 L651.248304,333.248304 L651.248304,-106.751696 L653.248304,-106.751696 Z M659.248304,-106.751696 L659.248304,333.248304 L657.248304,333.248304 L657.248304,-106.751696 L659.248304,-106.751696 Z M665.248304,-106.751696 L665.248304,333.248304 L663.248304,333.248304 L663.248304,-106.751696 L665.248304,-106.751696 Z M671.248304,-106.751696 L671.248304,333.248304 L669.248304,333.248304 L669.248304,-106.751696 L671.248304,-106.751696 Z M677.248304,-106.751696 L677.248304,333.248304 L675.248304,333.248304 L675.248304,-106.751696 L677.248304,-106.751696 Z M683.248304,-106.751696 L683.248304,333.248304 L681.248304,333.248304 L681.248304,-106.751696 L683.248304,-106.751696 Z M689.248304,-106.751696 L689.248304,333.248304 L687.248304,333.248304 L687.248304,-106.751696 L689.248304,-106.751696 Z M695.248304,-106.751696 L695.248304,333.248304 L693.248304,333.248304 L693.248304,-106.751696 L695.248304,-106.751696 Z M701.248304,-106.751696 L701.248304,333.248304 L699.248304,333.248304 L699.248304,-106.751696 L701.248304,-106.751696 Z M707.248304,-106.751696 L707.248304,333.248304 L705.248304,333.248304 L705.248304,-106.751696 L707.248304,-106.751696 Z M713.248304,-106.751696 L713.248304,333.248304 L711.248304,333.248304 L711.248304,-106.751696 L713.248304,-106.751696 Z M719.248304,-106.751696 L719.248304,333.248304 L717.248304,333.248304 L717.248304,-106.751696 L719.248304,-106.751696 Z M725.248304,-106.751696 L725.248304,333.248304 L723.248304,333.248304 L723.248304,-106.751696 L725.248304,-106.751696 Z M731.248304,-106.751696 L731.248304,333.248304 L729.248304,333.248304 L729.248304,-106.751696 L731.248304,-106.751696 Z M737.248304,-106.751696 L737.248304,333.248304 L735.248304,333.248304 L735.248304,-106.751696 L737.248304,-106.751696 Z M743.248304,-106.751696 L743.248304,333.248304 L741.248304,333.248304 L741.248304,-106.751696 L743.248304,-106.751696 Z M749.248304,-106.751696 L749.248304,333.248304 L747.248304,333.248304 L747.248304,-106.751696 L749.248304,-106.751696 Z M755.248304,-106.751696 L755.248304,333.248304 L753.248304,333.248304 L753.248304,-106.751696 L755.248304,-106.751696 Z M761.248304,-106.751696 L761.248304,333.248304 L759.248304,333.248304 L759.248304,-106.751696 L761.248304,-106.751696 Z M767.248304,-106.751696 L767.248304,333.248304 L765.248304,333.248304 L765.248304,-106.751696 L767.248304,-106.751696 Z M773.248304,-106.751696 L773.248304,333.248304 L771.248304,333.248304 L771.248304,-106.751696 L773.248304,-106.751696 Z M779.248304,-106.751696 L779.248304,333.248304 L777.248304,333.248304 L777.248304,-106.751696 L779.248304,-106.751696 Z" id="形状结合" fill="url(#radialGradient-5)" mask="url(#mask-3)" transform="translate(556.248304, 113.248304) rotate(45.000000) translate(-556.248304, -113.248304) "></path>
                <mask id="mask-8" fill="white">
                    <use xlink:href="#path-7"></use>
                </mask>
                <path stroke="url(#linearGradient-6)" stroke-width="2" d="M742,1 C743.932997,1 745.682997,1.78350169 746.949747,3.05025253 C748.216498,4.31700338 749,6.06700338 749,8 L749,8 L749,188 C749,189.932997 748.216498,191.682997 746.949747,192.949747 C745.682997,194.216498 743.932997,195 742,195 L742,195 L8,195 C6.06700338,195 4.31700338,194.216498 3.05025253,192.949747 C1.78350169,191.682997 1,189.932997 1,188 L1,188 L1,8 C1,6.06700338 1.78350169,4.31700338 3.05025253,3.05025253 C4.31700338,1.78350169 6.06700338,1 8,1 L8,1 Z"></path>
            </g>
        </g>
    </g>
</svg>