<?xml version="1.0" encoding="UTF-8"?>
<svg width="382px" height="42px" viewBox="0 0 382 42" version="1.1" xmlns="http://www.w3.org/2000/svg" xmlns:xlink="http://www.w3.org/1999/xlink">
    <title>标题@2x</title>
    <defs>
        <filter id="filter-1">
            <feColorMatrix in="SourceGraphic" type="matrix" values="0 0 0 0 1.000000 0 0 0 0 1.000000 0 0 0 0 1.000000 0 0 0 1.000000 0"></feColorMatrix>
        </filter>
        <polygon id="path-2" points="-2.64368739e-16 -4.20865655e-15 45.08043 -4.20865655e-15 45.08043 28.3520715 -2.64368739e-16 28.3520715"></polygon>
    </defs>
    <g id="页面-1" stroke="none" stroke-width="1" fill="none" fill-rule="evenodd">
        <g id="二手车在拍车辆投屏" transform="translate(-609.000000, -16.000000)">
            <g id="标题" transform="translate(609.000000, 16.000000)">
                <g filter="url(#filter-1)" id="编组备份">
                    <g transform="translate(0.000000, 3.000000)">
                        <path d="M22.0316718,27.9426289 C22.56767,27.9693941 23.1159463,27.9603174 23.6462519,27.9507362 C24.0590218,27.9439246 24.4693733,27.9403707 24.8795388,27.9379644 C24.840137,27.8561508 24.8053117,27.7761511 24.7799368,27.6995573 C24.7153089,27.5029085 24.6710331,27.261947 24.6874784,26.9833735 C23.6154448,26.9790422 22.5429648,26.9736373 21.4697779,26.9736373 C21.4167213,26.9736373 21.3639995,26.9755994 21.3112406,26.9761176 C21.2904049,27.2752371 21.215694,27.6143749 21.0302936,27.9328927 C21.3626973,27.9288575 21.7002727,27.9264512 22.0316718,27.9426289" id="Fill-1" fill="#F4A200"></path>
                        <path d="M46.4131257,28.6932928 C46.1313602,29.0123659 45.730608,29.2407037 45.212469,29.3740487 C45.3339485,29.3881162 45.4560233,29.3999255 45.5774656,29.4167695 C45.8497435,29.4536782 46.0919584,29.4993605 46.3266948,29.5437472 C46.7591842,29.6253757 47.1674149,29.7026359 47.6596209,29.7026359 C47.7364526,29.7026359 47.8149213,29.7006739 47.8962921,29.6966387 L47.9586503,29.6940103 L47.9736074,29.6336311 C48.0235758,29.4300226 48.0025913,29.2611385 47.9106538,29.1326801 C47.7310948,28.8795391 47.3350678,28.8395578 46.9862188,28.804241 C46.8477359,28.7906547 46.7168431,28.7775127 46.6268404,28.7515989 C46.5511249,28.7297573 46.4847112,28.7125801 46.4131257,28.6932928" id="Fill-3" fill="#F4A200"></path>
                        <path d="M9.29795373,28.7720301 C9.51151957,28.7738071 9.7255691,28.7757321 9.93961862,28.7757321 L10.0916448,28.7757321 C10.473496,28.7757321 10.8190708,28.7712527 11.1796027,28.7135389 L11.3370238,28.6878102 C11.6257842,28.6410173 11.9244787,28.5922623 12.219713,28.5720125 C12.6227348,28.5450991 13.0300354,28.4889402 13.4234579,28.4348544 C13.8310189,28.3786214 14.2522719,28.3223884 14.6674975,28.2973631 C14.6548101,28.2861461 14.639853,28.2745219 14.6280957,28.2637862 C14.3640777,28.0161612 14.1787145,27.7291842 14.074536,27.423105 C14.0260187,27.4245488 13.9783198,27.4260296 13.9333742,27.4260296 C13.836079,27.4260296 13.7371095,27.423105 13.6403723,27.4203285 C13.453558,27.4153309 13.2702783,27.4104443 13.103258,27.4235863 C12.2260753,27.4949973 11.2701264,27.529981 10.1809778,27.5301661 C9.98891736,27.5301661 9.79715458,27.5435672 9.60721493,27.5631877 C9.25107342,28.1981872 8.69226761,28.5660153 8.09033936,28.7745845 C8.28682738,28.7707344 8.47840412,28.7682911 8.65744224,28.7682911 C8.87082205,28.7682911 9.08405303,28.7700681 9.29795373,28.7720301" id="Fill-5" fill="#F4A200"></path>
                        <path d="M34.41253,28.3969536 C34.9897159,28.4670689 35.5870677,28.5399238 36.192419,28.5596923 C37.0169171,28.587235 37.8546607,28.7069198 38.664797,28.8228656 C38.9227876,28.8599964 39.1843499,28.8963868 39.4474005,28.9312224 C39.4412242,28.9257064 39.4334108,28.9203756 39.4275694,28.9150447 C39.1280563,28.6460223 38.9320892,28.2955565 38.8565226,27.9045911 C38.568432,27.8674973 38.280639,27.8295891 37.9961202,27.7925324 C36.5554437,27.6025101 35.0668824,27.4056021 33.595064,27.3332285 C33.5068472,27.328527 33.4179978,27.3306001 33.3291113,27.3318958 C33.2866213,27.3325622 33.2441314,27.3328953 33.2011578,27.3328953 L33.1755969,27.3328953 L33.09404,27.3900538 C32.8162184,27.4937091 32.798136,27.844323 32.7874205,28.0764367 L32.7769654,28.2406562 L32.8616104,28.2448765 C33.3824655,28.2715677 33.9059623,28.3350566 34.41253,28.3969536" id="Fill-7" fill="#F4A200"></path>
                        <path d="M0.406977143,29.3487272 C0.435626219,29.3453214 0.461001115,29.342582 0.48168798,29.3412863 C0.721149608,29.3309578 0.795004694,29.3278481 0.875110487,29.3278481 L0.965634126,29.3285145 C1.02810399,29.3291438 1.11323268,29.3304395 1.25681292,29.3304395 C1.46189565,29.3304395 1.66712722,29.3322535 1.87306571,29.3336972 C2.07974833,29.3356222 2.28635653,29.3372141 2.4927415,29.3372141 C3.21138683,29.3372141 3.98260507,29.3176307 4.75397215,29.1736609 C5.0189575,29.1244247 5.29242595,29.0910699 5.55696482,29.0578632 L5.59030193,29.053791 C5.50584296,29.0526804 5.42104914,29.0526804 5.33737151,29.0505703 C4.07539832,29.0282474 3.21626089,28.7203543 2.67014253,28.2929614 C1.97936494,28.3145069 1.42688425,28.3842891 0.925711453,28.5146726 C0.815059047,28.5433629 0.777778042,28.5514332 0.759025919,28.5553203 C0.737557715,28.560503 0.737408889,28.560503 0.697188563,28.5737931 L0.557366189,28.6199197 C0.424389828,28.6630477 0.168036407,28.8321168 0.109249992,28.9496915 L0.0872981022,28.9823799 C0.0504635758,29.0086269 0.0379621608,29.0306537 0.0255723656,29.0680806 L0.0189123856,29.0881453 C-0.00955065753,29.1639617 -0.00564396534,29.2278948 0.0289953721,29.2776123 C0.0869632428,29.3603885 0.207400982,29.3603885 0.246802763,29.3603885 C0.299859364,29.3603885 0.356525004,29.3543913 0.406977143,29.3487272" id="Fill-9" fill="#F4A200"></path>
                        <path d="M31.2498432,29.394243 C31.1726767,29.3438962 31.0238875,29.3396389 30.835585,29.3404903 C30.7784729,29.3399721 30.7279835,29.3404903 30.6982182,29.3366033 C30.5893145,29.3225358 30.4841687,29.304174 30.3788369,29.2858862 C30.2580643,29.2651552 30.1369568,29.2439429 30.0070686,29.2284316 C29.6330307,29.1823791 29.2459333,29.1895609 28.872714,29.1960393 C28.7376169,29.1986307 28.6031522,29.2008519 28.4701759,29.2008519 L19.9594283,29.2008519 C19.3638624,29.2008519 18.7933365,29.2614532 18.2413395,29.3207218 C18.0232345,29.3440442 17.8034923,29.3675148 17.5806621,29.3874314 C17.5370187,29.3916886 17.4563176,29.3919848 17.3555622,29.3933175 C16.8424833,29.397982 16.3704432,29.4151221 16.2309185,29.5697906 C16.2168172,29.5851908 16.2058785,29.6020348 16.1984,29.6201744 C16.1842242,29.625024 16.1718717,29.6310212 16.1624212,29.6355746 C16.1558728,29.6387954 16.148878,29.6425344 16.1412506,29.6452738 L16.1599655,29.698064 L16.1116342,29.698064 L16.1101459,29.878165 C16.1091785,30.033981 16.1080623,30.1897601 16.1152432,30.343466 L16.118629,30.4182829 L16.1934887,30.4233176 C16.2377645,30.4263902 16.2817427,30.4270196 16.3245303,30.4270196 C16.4978758,30.4270196 16.6609895,30.4069549 16.8206802,30.386557 C16.9394809,30.371638 17.0627091,30.3559417 17.1878721,30.3496483 C17.4799066,30.3348774 17.7807219,30.3400972 18.0715658,30.3446136 C18.2200201,30.347168 18.3686233,30.3496483 18.5164451,30.3496483 L22.3225678,30.3496483 C22.767261,30.3496483 23.2134053,30.3556085 23.6595867,30.3609393 C24.7079941,30.3739333 25.7933848,30.3875195 26.852396,30.3251412 L27.3022609,30.2970062 C27.9211182,30.2574321 28.5072708,30.2203754 29.1253096,30.2203754 C29.2641646,30.2203754 29.4149257,30.2119719 29.5688865,30.2025689 C29.8840264,30.1847624 30.2103654,30.1654751 30.4841687,30.2190797 C30.571567,30.2359237 30.6347066,30.2589129 30.6915583,30.2793478 C30.8852186,30.3499074 30.9790164,30.3513882 31.1951495,30.0861048 C31.3466919,29.8995254 31.4129197,29.7373049 31.3916375,29.6030343 C31.378578,29.5184442 31.3299118,29.4459225 31.2498432,29.394243" id="Fill-11" fill="#F4A200"></path>
                        <path d="M46.9354542,31.2256352 C46.7915391,31.2198231 46.6558094,31.2143071 46.5399481,31.1924655 C46.301119,31.1471163 46.0522441,31.0861818 45.8118523,31.028246 C45.585413,30.9733087 45.3726657,30.9218142 45.1652761,30.8809815 C44.4049966,30.7307183 43.6178167,30.6657857 42.8577977,30.6027411 C42.399152,30.5648699 41.9244703,30.5258511 41.4638155,30.4681744 C41.1097948,30.424306 40.7554392,30.4080914 40.4128037,30.3928763 C40.1362843,30.3807338 39.8506121,30.3677769 39.5688093,30.3400861 C39.3002894,30.3135059 39.0259652,30.262974 38.7600496,30.2134046 C38.4740426,30.1605034 38.1776176,30.1051959 37.8842809,30.0794672 C37.5551886,30.050999 37.2232686,30.0094999 36.9028082,29.9692224 C36.3486904,29.8995513 35.7752624,29.8279551 35.197444,29.8208473 C35.0974699,29.8198478 34.8459905,29.7735361 34.5533235,29.7201166 C33.6980928,29.5630049 33.0273323,29.4543149 32.8259702,29.598988 C32.7862336,29.6276413 32.7607099,29.666512 32.7546824,29.7120093 L32.8201288,29.7220787 L32.7287866,29.7364423 C32.7426275,29.8250305 32.72328,29.9055485 32.7043791,29.9829938 C32.6697025,30.1282222 32.6259104,30.3089525 32.9081596,30.4217146 C33.1392869,30.5140048 33.4226896,30.5177438 33.6984276,30.5208165 C33.8268648,30.5229266 33.9487536,30.5240372 34.058141,30.5350691 C34.7922642,30.6079239 35.5369542,30.7407507 36.2573482,30.8698385 C36.9118866,30.9864507 37.5885257,31.1072461 38.25657,31.1829144 C38.8428715,31.2491427 39.4410419,31.2677636 40.0193812,31.285237 C40.7606481,31.3080781 41.5279969,31.3318818 42.2745843,31.457897 C43.4929514,31.6633935 44.9344836,31.8738137 46.3849454,31.8738137 C46.583703,31.8738137 46.7816421,31.9000237 46.972884,31.9259375 C47.1641259,31.9516662 47.3610976,31.9779132 47.5593715,31.9779132 L47.5935272,31.9779132 C47.7756906,31.9746925 47.9210196,31.893064 47.9636955,31.7691959 C47.9817779,31.7171462 48.0040275,31.5812838 47.8282635,31.4418674 C47.5898065,31.2525485 47.2422969,31.238481 46.9354542,31.2256352" id="Fill-13" fill="#F4A200"></path>
                        <path d="M14.7366757,29.7372901 C14.6583931,29.705231 14.5641488,29.7016401 14.4902565,29.7016401 L14.338714,29.7039353 C13.9327529,29.7039353 13.5336378,29.7699785 13.1471729,29.8338005 C13.0409109,29.8519402 12.9339791,29.8692284 12.8263777,29.8859613 C12.3372598,29.9607782 11.8585226,30.0294498 11.3832456,30.0436654 C11.1421841,30.0509953 10.8973647,30.0433692 10.6519128,30.0359283 C10.2914925,30.0247853 9.91912895,30.018603 9.6310011,30.042888 C8.56562754,30.1322906 7.48317615,30.3322712 6.43655471,30.5263287 C6.11326663,30.5862266 5.79116916,30.6458284 5.47115526,30.7023205 C4.06530417,30.9493532 2.99129867,31.0589686 1.98865543,31.0589686 L1.9546486,31.0589686 C1.61718481,31.0589686 1.57406237,31.0669279 1.37091437,31.1147204 C1.3106769,31.128973 1.23514752,31.1465943 1.129518,31.1686211 C0.961046553,31.2044192 0.543216522,31.3425768 0.299029657,31.5139041 C0.164118553,31.6091189 0.101760305,31.7286926 0.0882543116,31.8088404 C0.0802921008,31.8553372 0.0863195688,31.894504 0.107452913,31.9233424 C0.145403637,31.9758364 0.221081846,31.9988257 0.359788022,31.9988257 C0.465864017,31.9988257 0.585520417,31.9850543 0.642669743,31.9783908 L0.666779615,31.9756513 C0.841911045,31.9579929 0.900474221,31.9453692 0.943447835,31.93567 C0.990811827,31.9243049 1.01294975,31.9192702 1.23514752,31.9192702 C2.37147405,31.9192702 3.71827828,31.8976137 5.09451292,31.7385769 C6.01091129,31.6331447 6.93058384,31.4878423 7.82015625,31.3479077 C8.15806652,31.2949694 8.49579076,31.241661 8.83422193,31.1901666 C9.35771868,31.1108333 9.85431507,31.0794035 10.4386446,31.0557479 C11.5559214,31.0115464 12.3986135,30.930251 13.1705014,30.793204 C13.399508,30.7525933 13.609502,30.7213116 13.8123151,30.6979892 C13.9298136,30.684551 14.0507722,30.6824409 14.1682706,30.680664 C14.2703283,30.678887 14.3725348,30.6767769 14.4744809,30.6683364 L14.5118735,30.6665965 C14.7135704,30.6552684 14.7645435,30.6463467 14.7978806,30.6142506 C14.8532068,30.5613123 14.8642943,30.4489204 14.8686847,30.1998146 C14.8693544,30.151726 14.8698381,30.1120408 14.8727774,30.0921242 L14.8831953,30.0219718 C14.9041798,29.890959 14.9084214,29.8072574 14.7366757,29.7372901" id="Fill-15" fill="#F4A200"></path>
                        <path d="M12.7907226,24.1791249 C12.6151075,24.1648723 11.9703544,24.0758028 11.2087355,23.9240219 C10.5338823,23.7897514 10.0717764,23.5492712 10.0717764,23.5492712 C10.0717764,23.5492712 9.80824214,23.4501693 9.69037166,23.4384711 C9.60133628,23.4295864 9.53071817,23.4310671 9.48610747,23.4393225 C9.38192901,23.4593872 9.17911587,23.6364156 9.03687507,23.7828287 L7.94236875,24.912782 C7.10830857,25.7771188 5.6500706,25.743764 4.89626504,25.7742312 C2.40532089,25.8663734 2.33678635,27.8276789 5.35851974,27.8825792 C6.67567031,27.9062348 8.1469678,27.8890576 8.61915666,26.9326898 C8.71537291,26.1635678 9.68240945,25.9713243 9.68240945,25.9713243 C11.802069,25.3144461 12.6452076,24.6232137 12.9479948,24.3397906 C13.057345,24.2379123 12.9713978,24.1953025 12.7907226,24.1791249" id="Fill-17" fill="#F4A200"></path>
                        <path d="M32.8316666,22.2466874 C32.9613687,20.7874805 33.5170864,20.960918 31.9993923,19.3708093 C31.9993923,19.3708093 31.138841,18.3061588 29.7941576,18.6990492 C29.3481622,19.0446654 27.1082137,19.9734906 28.2209512,20.3258814 C29.4098507,20.9087572 30.1757112,21.7447738 30.3720132,22.6695638 C30.5687988,23.5963899 30.196026,24.6139883 29.1087005,25.5617306 C28.852682,25.783923 28.8691273,25.7151033 28.5113487,25.7157697 C27.9523941,25.7178798 26.8654035,25.7189904 26.4708275,26.1867347 C26.0454818,26.688167 25.5900359,27.5186307 26.8409587,27.8150478 L29.8101192,27.8406226 C30.8235152,27.8479213 31.7121202,26.5616706 31.8198705,25.6354369 C31.8198705,25.6354369 32.0882789,24.9805207 32.7787588,25.0400855 C32.7787588,25.0400855 34.4113841,24.2552301 32.9589503,22.7966526 C32.7549838,22.591193 32.8048034,22.5432154 32.8316666,22.2466874" id="Fill-19" fill="#F4A200"></path>
                        <g id="编组" transform="translate(0.614253, 0.000000)">
                            <mask id="mask-3" fill="white">
                                <use xlink:href="#path-2"></use>
                            </mask>
                            <g id="Clip-22"></g>
                            <path d="M44.6116068,26.4957125 C43.9754857,25.6959752 44.3096381,25.1300916 44.3096381,25.1300916 C44.5204507,24.0404897 43.7707006,22.8627439 43.2977304,22.253288 C43.2096252,22.1399336 43.1308588,22.0461996 43.0699889,21.9778242 C42.9885808,21.88372 42.8111798,21.8178249 42.7328599,21.7896158 C42.6527913,21.761777 42.563756,21.72435 42.467056,21.67367 C41.2296392,21.0487029 38.6946424,18.7970145 38.5691446,17.8192863 C38.5779254,16.291741 38.4024591,15.0466193 38.0598236,14.0416815 C38.625773,13.6408689 39.4856918,13.0461098 39.404321,12.037174 C39.5325721,12.2408936 39.6818449,12.4306938 39.872938,12.5907671 C39.896713,12.6104616 39.9716099,12.5988004 39.9839625,12.5745154 C40.2505849,12.0264753 40.1285101,11.676972 40.0295405,11.3161406 C40.1259056,11.374928 40.2209685,11.4343446 40.3168499,11.4929839 C40.3474709,11.5116048 40.424749,11.4895781 40.4310741,11.4591108 C40.553335,10.8785674 40.2577286,10.1113704 39.6543493,9.20679316 C38.7112738,7.65951634 35.9627856,7.24134142 33.7943482,7.24426598 C31.3019902,7.27665825 29.8162193,7.71586038 27.9589779,8.10097667 C26.4541201,8.27152659 25.3666086,8.23265587 24.6366152,8.0464466 C24.2475831,7.94745583 23.8959808,7.76476344 23.8785309,7.74954833 C23.1384174,7.11273486 23.4503202,6.23007333 23.5254776,6.10035618 C23.9946155,5.28473739 25.472759,4.78982056 27.3776993,4.65247735 C28.9033556,4.62138077 30.774624,4.80229621 32.8636253,5.10837538 C34.2065228,6.96469294 36.1609479,7.0045632 38.6251405,5.53532397 C38.658366,5.51570351 38.6638726,5.46109941 38.632619,5.45399162 C38.316363,5.38013725 37.9999209,5.30483911 37.6829952,5.23065156 C39.6693435,4.22327054 40.0440139,3.30581046 39.9343289,2.41622624 C39.9318732,2.39046051 39.8659432,2.37861419 39.8355082,2.39853081 C39.0096334,2.9547153 38.1197262,3.32395013 37.1217709,3.36963249 C37.3498102,2.93979635 37.4827865,2.52958067 37.417675,2.15916121 C37.4114987,2.13098919 37.3369367,2.11481156 37.3063529,2.13443202 C36.6910674,2.52373155 36.0118239,2.80330459 35.2256114,2.89574286 C34.2177592,2.78882987 33.5104991,3.09205852 33.1046868,3.80483648 C29.2064405,2.96000912 26.6110202,3.08524689 24.9092279,3.87413743 C25.1286352,3.61710941 25.2443849,3.37155751 25.2588955,3.13866636 C25.2614999,3.096723 25.1499918,3.05352097 25.0962655,3.0719568 C24.4445176,3.30207147 23.7881933,3.55069601 22.8877566,4.69475388 C22.8613771,4.62282454 22.834886,4.5499697 22.8085065,4.47741102 C22.7838758,4.40999808 22.5838531,4.46378776 22.5081749,4.56015013 C22.1990625,4.95355885 21.9020051,5.37106741 21.7079727,5.89063939 C21.5303857,6.24710241 21.4600652,6.6442131 21.4564934,7.07808439 C21.4442896,8.34619539 23.2495907,9.78985398 25.9661184,9.67098361 C27.7359616,9.59538932 29.2285784,9.21360479 30.5808892,9.06867253 C32.5201712,8.85928891 34.0832574,8.73938199 34.5958526,8.79609623 C35.5226688,8.89375429 36.4360162,9.30385891 36.9832508,10.1268816 C37.1813387,10.4227804 37.2169826,11.2092276 36.8401543,11.6964073 C36.7978504,11.7507893 36.7456123,11.8019876 36.6882769,11.851409 C34.7797648,10.1189594 31.4919299,10.2389404 27.1535296,11.3082184 C25.4481654,11.6753431 22.5304617,12.0985527 22.5304617,12.0985527 C21.3589749,12.3575057 19.5935593,12.6550334 19.5935593,12.6550334 C19.5247271,12.6622892 19.4564902,12.6723586 19.3879557,12.6823909 L19.3892579,12.6810952 C19.3783564,12.6832054 19.3694268,12.6845011 19.358488,12.6859819 C19.2531934,12.7024556 19.1500195,12.7202991 19.0482967,12.74066 C17.7058456,12.9690347 16.9568025,12.9148008 16.292516,12.5701841 C16.0065461,12.4224384 15.1798157,11.6439133 15.1423858,11.5474029 C15.1093464,11.4588147 15.0798788,11.3613417 15.1129182,11.2851921 C15.1757601,11.1402228 15.4486705,11.1844614 15.7107909,11.2851921 C16.2105127,11.4768063 16.5127418,11.5904568 16.9540492,11.8097988 C17.0017109,11.8331212 17.1150421,11.750197 17.1158235,11.6844129 C17.1498675,10.1374323 15.2371138,9.6308172 13.6887987,8.92858986 C13.6598147,8.91563295 13.6027026,8.82263938 13.6027026,8.78895142 L13.6027026,8.67866963 C13.6027026,8.63317238 13.6790134,8.56631474 13.7166292,8.57716152 C14.1580482,8.7114321 14.5371834,8.90152843 14.9006546,9.10672882 C14.9431445,9.12971808 15.0173717,9.06756194 15.0108605,9.01329101 C14.9156117,8.25486771 14.5988719,7.70245923 13.7438272,7.20180434 C12.9335421,6.66139026 11.86069,6.37892968 10.9924741,6.24365957 C11.0036733,6.15040686 11.0105566,6.05467383 11.0115239,5.95657153 C11.5643023,5.94146748 12.1449111,6.04867663 12.6599248,6.40177086 C12.4519027,5.30580162 11.6992506,4.91402177 10.8982299,4.83709476 C11.512213,3.39199241 12.1257125,1.94781554 12.7412956,0.504119937 C12.1165597,0.625803804 11.5542193,0.833743653 11.4189361,1.62926073 C11.1226972,1.3709 10.8114641,1.17029006 10.3938201,1.35686952 C9.85272461,1.82520618 10.0744387,2.23579206 10.5074118,2.63064455 C10.5961123,2.11495964 11.0906251,2.15867995 11.0785702,2.67192155 C11.0675198,2.91469697 10.9534072,3.14984632 10.7805454,3.39199241 C10.437389,3.698886 9.92758427,3.75963539 9.45848356,3.08976329 C8.65880227,3.698886 8.25232025,3.4655136 8.00136178,3.11067944 C7.95823934,2.84732105 7.95641622,2.58333332 7.99384605,2.31627296 C8.10208003,1.62763186 8.90410533,1.76919532 8.77682158,2.44210304 C9.31561024,2.24401044 9.49137418,1.89650619 9.30076481,1.40058983 C8.9942569,1.10110018 8.63632949,1.08022104 8.29060583,1.33754522 C8.23379136,0.811050555 8.04173093,0.341048006 7.54119065,-1.48078938e-05 C7.53988842,0.0430391433 7.53988842,0.0842050881 7.53988842,0.127296059 L7.53988842,0.000947705203 C7.0380459,0.341048006 6.85804041,0.811050555 6.80174683,1.33754522 C6.45468374,1.08022104 6.09671912,1.10110018 5.79136461,1.40058983 C5.60239233,1.89650619 5.77510533,2.24401044 6.3161636,2.44210304 C6.18646142,1.76919532 6.99038426,1.62763186 7.09846941,2.31627296 C7.13701544,2.58333332 7.13281109,2.84732105 7.08980027,3.11067944 C6.8404789,3.4655136 6.43239699,3.698886 5.63249246,3.08976329 C5.16469398,3.75963539 4.65589383,3.698886 4.31046783,3.39199241 C4.13842454,3.14984632 4.02464679,2.91469697 4.01389408,2.67192155 C4.002174,2.15867995 4.49519856,2.11495964 4.58408511,2.63064455 C5.01824883,2.23579206 5.23858627,1.82520618 4.69786287,1.35686952 C4.27906546,1.17029006 3.96768349,1.3709 3.6725608,1.62926073 C3.53697998,0.833743653 2.97393262,0.625803804 2.35116868,0.504119937 C3.00615353,2.04288222 3.65987335,3.58260702 4.31567675,5.12199864 C4.16707362,5.24234979 3.99681625,5.36136824 3.79415195,5.47620346 C2.64859818,6.12415987 2.11840424,7.64170985 2.09708486,7.85709066 C1.89345318,7.98662271 0.24784281,9.32114712 0.0715207688,9.43372413 C-0.13255739,9.56377446 0.109769146,10.4253347 0.675086109,10.0253735 C0.581697562,10.3265661 0.273850218,11.1739478 1.57116968,11.6887813 C1.72252609,11.9164896 2.59386728,12.6641032 2.8649173,12.5715909 C3.13626498,12.4786343 2.93620513,12.2412268 2.78216984,12.1375715 C2.67605664,12.040876 2.45847249,11.6503918 2.45847249,11.6503918 C2.75017217,11.5879025 3.45054907,11.018613 3.45218616,10.8960036 C3.47413805,10.8007889 4.15501868,10.3265661 4.77227605,11.1952712 C4.53184705,11.1435176 3.80393728,11.3627855 3.52313913,11.5010912 C3.22332841,11.6118543 4.22403691,12.356062 4.22403691,12.356062 C4.44444877,12.3780887 5.06788243,12.387936 5.15509468,12.3320732 C4.93081334,12.5567089 4.25919714,13.1062299 3.81725724,12.8182534 C3.37632192,12.5300177 3.42629037,12.2932395 3.42777863,12.1719258 C3.30242962,12.2925361 2.73763355,12.6932377 3.53095251,13.4489216 C3.35630477,13.5598327 2.978323,14.367048 3.7041492,15.0841573 C3.72044569,14.9479617 3.83109809,14.7512018 3.97925474,14.5816514 C4.11628662,14.4242065 4.51674118,14.0416815 4.9430171,14.0321305 C5.3053349,14.0246895 5.3149342,14.2692048 5.10155439,14.6359223 C4.96124833,14.8771799 4.64644336,15.0789745 4.46803775,15.6842101 C4.18563971,16.6420217 4.5541338,17.8484208 4.91567026,17.9440058 C5.02714121,17.3222594 5.15933623,16.8870554 5.31039499,16.565576 C5.50133923,16.2904453 5.76974758,15.9713722 6.1203453,15.708236 C6.13630693,15.7169726 6.15178487,15.7267088 6.16413746,15.7386662 C6.2061065,15.777796 6.26816709,15.9057733 6.2761293,15.9158426 C6.30526207,15.9511224 6.30622944,16.0638845 6.28606346,16.0873551 C5.49854873,16.9626867 5.22299671,17.8170281 5.24658569,18.6875472 C5.25488276,18.9983278 5.2935032,19.3648232 5.39388659,19.6577974 C5.57541755,20.186143 5.79839666,20.6163124 6.24439208,21.054515 C6.40341306,21.2107753 6.51704199,21.0250472 6.51164703,20.9330162 C6.49311815,20.6036516 6.48511873,20.2997936 6.51049363,20.006005 C6.53426864,19.7349095 6.62122045,19.3844437 6.7197063,19.1184939 C6.86745368,18.72105 7.08366118,18.4033096 7.49821703,17.9490035 C7.52426165,17.9197209 7.61724092,17.9310489 7.636886,17.9655513 C7.67256713,18.0265968 7.70638792,18.088753 7.74061798,18.1498355 C7.75133348,18.1696041 7.74679428,18.2512326 7.73406962,18.2721117 C6.97490631,19.4969837 6.75516418,20.1414232 7.26723851,21.4218248 C7.33368948,21.5881544 7.44028637,21.78621 7.58092729,21.930698 C7.77949887,22.1346027 7.87895209,21.9115958 7.87895209,21.8473296 C7.88300761,20.9910261 8.04954432,20.5544154 8.31534821,20.0555744 C8.33209118,20.0230341 8.34887135,19.9930481 8.36613521,19.9621366 C8.37443228,19.9483653 8.38388276,19.9363339 8.39184497,19.9227476 C8.39366809,19.9224515 8.39575166,19.9208596 8.39753758,19.9206745 C8.41934064,19.9167875 8.43920896,19.9427013 8.44233431,19.9580645 C8.45223127,20.0030805 8.44493877,20.1119185 8.44899429,20.1728159 C8.47451802,20.685095 8.30898589,21.6992877 8.72506721,22.2362959 C9.00973485,22.604087 9.83691181,22.9989395 9.83691181,22.9989395 C9.83691181,22.9989395 10.616948,23.3272305 11.4340792,23.4018993 C11.8414914,23.4392892 12.9534104,23.6049896 13.7574821,23.4349209 C13.8065203,23.423926 13.853996,23.4127461 13.9000577,23.4001224 C13.9484263,23.3873135 14.070836,23.2893223 14.0508188,23.2261666 C14.0298343,23.1634552 13.9935207,23.0928586 13.963867,23.0472502 C13.6739905,22.6198204 13.3630922,22.2236722 13.2218187,22.0203968 C13.0559518,21.7807311 12.8389629,21.2581235 12.7915989,21.1610577 C11.8512395,19.2150043 13.8071156,16.845149 13.8071156,16.845149 C13.9074246,15.9467541 14.1195022,16.1124544 14.1195022,16.1124544 L14.2482742,16.5613928 C14.3201946,16.813201 14.2929965,16.7753298 14.1587552,16.9959304 C12.5931762,19.5306716 13.7465805,21.442889 13.7465805,21.442889 C14.195999,22.769158 16.5833972,24.4661056 16.5833972,24.4661056 C17.285746,24.6650126 16.9509239,25.7303295 16.9509239,25.7303295 L16.2495424,25.6710609 C15.89288,25.6621392 15.5994316,25.6838328 15.2893519,25.8824066 C14.185916,26.5859667 14.5433597,27.1551821 14.8186141,27.4122471 C14.9203741,27.5077951 15.1542175,27.6167812 15.2424716,27.6167812 C16.0374276,27.61841 16.6569546,26.9989218 17.4472226,27.3526083 C17.6049786,27.4222795 17.7522795,27.4802894 17.8875254,27.5272304 C19.9198983,28.2362694 19.4929899,26.429003 19.4929899,26.429003 C20.0947321,25.7972242 19.1586142,24.2997759 19.1586142,24.2997759 C18.8575013,24.1988601 18.5165029,23.2010672 18.5165029,23.2010672 C18.424863,22.5769145 18.4022042,22.4489743 18.5304925,21.8509945 C18.6203465,21.441112 18.710498,20.8036322 18.7775815,19.8531135 C18.7741585,19.7138453 18.7588666,19.5948268 18.7378449,19.4887283 C18.7367287,19.4806209 18.7368775,19.4756233 18.7359101,19.4673679 C18.734273,19.4598899 18.7316686,19.4519677 18.7300315,19.4443416 C18.7282456,19.4364194 18.7263108,19.4287933 18.7241901,19.4211672 C18.7167115,19.3889601 18.7074099,19.3563827 18.6952061,19.3233981 C18.5973528,19.0216133 18.4285837,18.8776805 18.2658048,18.812896 C18.2528197,18.8070839 18.2392765,18.8018641 18.2257705,18.7970145 C18.1907591,18.7858346 18.157236,18.7780604 18.1245314,18.7725815 C18.0138418,18.7529981 17.776687,18.655303 17.73256,18.5900372 C17.4775088,18.2219129 17.9453445,18.1453191 18.1139275,18.1408027 C20.1417984,18.2866975 19.3254486,21.9033034 19.3254486,21.9033034 C18.7904178,23.0347746 19.9947952,22.5022457 19.9947952,22.5022457 C21.8014357,22.1030249 28.7571709,18.1756013 28.7571709,18.1756013 C30.5974834,17.5109119 28.9586818,17.4438692 28.9586818,17.4438692 C28.6238597,17.5269415 28.0675095,17.6615082 27.6968574,17.7525768 C24.8312429,17.7077088 29.6088298,16.6869267 28.8789109,16.2138515 C28.6847669,16.1161564 27.0628943,15.3773165 27.0204044,15.2477475 C26.9284297,14.9725798 27.1896572,14.9712841 27.378183,14.9246763 C30.6785565,14.1173129 31.3994715,17.1779564 31.3994715,17.1779564 C32.021082,20.6709905 37.1344584,22.9464825 40.3549122,23.4893769 C41.6807319,23.7136795 41.8213356,24.5709085 41.9754825,25.9097642 C42.0011923,26.4606178 41.4035056,26.7619955 40.9140529,26.5905201 C39.3849735,26.0571768 38.6244708,28.3822012 40.4385898,28.2638121 C40.896789,28.2344925 41.1084201,27.7457209 41.7010467,28.1601568 C42.8783749,28.4714188 46.3249332,28.6780629 44.6116068,26.4957125 M2.82808278,8.06066218 L2.82808278,8.06066218 C2.82808278,8.06066218 4.26440607,6.97861236 5.03986586,7.20635777 C5.81644186,7.43484357 4.27121487,8.69632804 2.82808278,8.06066218 M20.079403,17.6418137 L20.079403,17.6418137 C19.634747,17.8970648 19.1044042,17.8727428 19.1044042,17.8727428 C18.1487529,17.3021947 18.8370004,17.188322 18.8370004,17.188322 L20.0105708,17.2404457 C20.4030259,17.3001956 20.5197058,17.3884877 20.079403,17.6418137 M34.4635088,19.3840735 L34.4635088,19.3840735 L34.2065228,19.3123662 C34.2065228,19.3123662 35.4334474,18.1998862 35.7448666,19.2927828 C35.7448666,19.2927828 34.7924894,19.0929133 34.4635088,19.3840735 M36.3608217,16.3103249 L36.3608217,16.3103249 C35.3753679,15.3366689 35.3784561,15.2260539 33.8191278,15.0905247 C33.6613718,14.5106846 36.1747516,13.6630067 36.5927676,15.8724185 C36.5927676,15.8724185 36.5312279,16.4795791 36.3608217,16.3103249" id="Fill-21" fill="#F4A200" mask="url(#mask-3)"></path>
                        </g>
                        <path d="M3.38809954,35.6603773 L4.01722581,35.6603773 C4.12523655,35.6603773 4.20106358,35.6564161 4.24474412,35.6483829 C4.32172456,35.6347226 4.38609196,35.6118074 4.43780913,35.5798223 C4.48952629,35.5478002 4.53201622,35.5012294 4.56535333,35.4399988 C4.59865323,35.3788792 4.61532178,35.3082455 4.61532178,35.2282089 C4.61532178,35.1345119 4.59121191,35.0530315 4.54295496,34.9838416 C4.49469801,34.9146887 4.42772614,34.8661189 4.34215098,34.8380579 C4.2565014,34.810071 4.13327317,34.7960405 3.97242907,34.7960405 L3.38809954,34.7960405 L3.38809954,35.6603773 Z M3.38809954,34.4993273 L3.93451555,34.4993273 C4.08270941,34.4993273 4.18900865,34.4896282 4.25337605,34.4701928 C4.33839311,34.4450934 4.40246287,34.4032981 4.4455481,34.3450291 C4.48867054,34.286686 4.51021316,34.213498 4.51021316,34.125502 C4.51021316,34.0420596 4.49008439,33.9685384 4.44986406,33.9051236 C4.40964374,33.8416347 4.35219676,33.7981735 4.27748592,33.7747401 C4.20277508,33.7513436 4.07467279,33.7396083 3.89314182,33.7396083 L3.38809954,33.7396083 L3.38809954,34.4993273 Z M3.05372389,35.9571274 L3.05372389,33.4428952 L4.00171066,33.4428952 C4.19477567,33.4428952 4.3495923,33.4683277 4.46623496,33.5192298 C4.58284042,33.570132 4.67421982,33.6484287 4.74029872,33.7541571 C4.80637763,33.8599225 4.83941708,33.9705745 4.83941708,34.086039 C4.83941708,34.1935443 4.81009829,34.2946822 4.75149791,34.3895638 C4.69289752,34.4844824 4.60438304,34.5610762 4.48606608,34.6194193 C4.63887355,34.6639541 4.75637197,34.7400296 4.83856133,34.8474609 C4.92067628,34.9549662 4.96178957,35.0818699 4.96178957,35.2282089 C4.96178957,35.3460057 4.93682394,35.455473 4.88681828,35.5566109 C4.83684983,35.6578599 4.77504968,35.7358605 4.70152945,35.7907237 C4.62797202,35.845624 4.53573688,35.8870491 4.42486123,35.91511 C4.31394838,35.943097 4.17806991,35.9571274 4.01722581,35.9571274 L3.05372389,35.9571274 Z" id="Fill-43" fill="#F4A200"></path>
                        <path d="M5.585759,35.046442 C5.585759,35.2797033 5.63688086,35.4543254 5.73916178,35.5703453 C5.8414427,35.6864021 5.97014031,35.7444491 6.12525459,35.7444491 C6.27925268,35.7444491 6.40735497,35.686106 6.50963589,35.5694938 C6.61191682,35.4528816 6.66303867,35.2751499 6.66303867,35.0361875 C6.66303867,34.8109594 6.61158196,34.6402244 6.50878014,34.5242046 C6.40590392,34.4082218 6.27806206,34.3501378 6.12525459,34.3501378 C5.97014031,34.3501378 5.8414427,34.4079256 5.73916178,34.5233161 C5.63688086,34.6388547 5.585759,34.8131806 5.585759,35.046442 M5.26689851,35.046442 C5.26689851,34.7091552 5.36106839,34.459346 5.54955699,34.2970145 C5.70697808,34.1620775 5.89888968,34.0946276 6.12525459,34.0946276 C6.37691998,34.0946276 6.58259802,34.1766263 6.74232592,34.3406978 C6.90201662,34.5048062 6.98189917,34.7314781 6.98189917,35.0207133 C6.98189917,35.2551222 6.94659011,35.4394805 6.87589759,35.5738251 C6.80524227,35.7081697 6.70240325,35.8124913 6.56738053,35.8867529 C6.4323206,35.9610886 6.28494528,35.9982564 6.12525459,35.9982564 C5.86901279,35.9982564 5.66184648,35.9165538 5.50386729,35.7530006 C5.3458881,35.5895215 5.26689851,35.354039 5.26689851,35.046442" id="Fill-44" fill="#F4A200"></path>
                        <path d="M7.34217432,35.9571126 L7.34217432,34.1357787 L7.6214098,34.1357787 L7.6214098,34.4119089 C7.69262322,34.28271 7.75844168,34.1975276 7.81875357,34.1563617 C7.87910266,34.1151587 7.94544201,34.0946128 8.01784604,34.0946128 C8.12239656,34.0946128 8.2286958,34.1277454 8.33670654,34.1940478 L8.2298492,34.4804324 C8.15402217,34.4358977 8.07815793,34.4135748 8.00233089,34.4135748 C7.93450327,34.4135748 7.87363329,34.4338986 7.81964652,34.4744353 C7.76558534,34.5150829 7.72711373,34.5713899 7.70415726,34.6434303 C7.66966675,34.7531939 7.65240289,34.8732118 7.65240289,35.0035583 L7.65240289,35.9571126 L7.34217432,35.9571126 Z" id="Fill-45" fill="#F4A200"></path>
                        <path d="M8.52113961,35.9571126 L8.52113961,34.1357787 L8.80037509,34.1357787 L8.80037509,34.3947688 C8.93483971,34.1947141 9.12898371,34.0946128 9.38299312,34.0946128 C9.49327346,34.0946128 9.59469863,34.1143073 9.68719422,34.1537703 C9.7796898,34.1932704 9.84893127,34.2449499 9.89488141,34.3089941 C9.94083156,34.3730012 9.97301526,34.4490767 9.99143252,34.5370726 C10.0028922,34.5942681 10.0086592,34.6943325 10.0086592,34.8371916 L10.0086592,35.9571126 L9.6983934,35.9571126 L9.6983934,34.849186 C9.6983934,34.723467 9.68633846,34.6293999 9.66219139,34.5670586 C9.63808151,34.5048285 9.59525673,34.4550739 9.53379144,34.4179061 C9.47228894,34.3807383 9.40021977,34.3621544 9.31747231,34.3621544 C9.18531449,34.3621544 9.07127629,34.4038756 8.97532049,34.4873181 C8.87936468,34.5708346 8.83140539,34.729168 8.83140539,34.9624294 L8.83140539,35.9571126 L8.52113961,35.9571126 Z" id="Fill-46" fill="#F4A200"></path>
                        <path d="M11.5392677,35.9571126 L11.5392677,34.3758887 L11.2652039,34.3758887 L11.2652039,34.1357787 L11.5392677,34.1357787 L11.5392677,33.9419804 C11.5392677,33.8196672 11.5501692,33.7287838 11.5720095,33.669256 C11.6018864,33.5892934 11.6544593,33.5243608 11.7297282,33.4746063 C11.8049972,33.4248888 11.9104407,33.4000115 12.0460215,33.4000115 C12.1333453,33.4000115 12.2298592,33.41034 12.3356004,33.430886 L12.2890549,33.7001305 C12.2246875,33.6887284 12.1638175,33.6829903 12.1063706,33.6829903 C12.0121263,33.6829903 11.9454521,33.703018 11.9064223,33.7429993 C11.8673182,33.7830547 11.8477848,33.8579086 11.8477848,33.9676721 L11.8477848,34.1357787 L12.204596,34.1357787 L12.204596,34.3758887 L11.8477848,34.3758887 L11.8477848,35.9571126 L11.5392677,35.9571126 Z" id="Fill-47" fill="#F4A200"></path>
                        <path d="M12.6493078,35.046442 C12.6493078,35.2797033 12.7004296,35.4543254 12.8027105,35.5703453 C12.9049915,35.6864021 13.0336891,35.7444491 13.1888034,35.7444491 C13.3428014,35.7444491 13.4709037,35.686106 13.5731847,35.5694938 C13.6754656,35.4528816 13.7265874,35.2751499 13.7265874,35.0361875 C13.7265874,34.8109594 13.6751307,34.6402244 13.5723289,34.5242046 C13.4694527,34.4082218 13.3416108,34.3501378 13.1888034,34.3501378 C13.0336891,34.3501378 12.9049915,34.4079256 12.8027105,34.5233161 C12.7004296,34.6388547 12.6493078,34.8131806 12.6493078,35.046442 M12.3304473,35.046442 C12.3304473,34.7091552 12.4246172,34.459346 12.6131058,34.2970145 C12.7705268,34.1620775 12.9624384,34.0946276 13.1888034,34.0946276 C13.4404687,34.0946276 13.6461468,34.1766263 13.8058747,34.3406978 C13.9655654,34.5048062 14.0454479,34.7314781 14.0454479,35.0207133 C14.0454479,35.2551222 14.0101389,35.4394805 13.9394464,35.5738251 C13.868791,35.7081697 13.765952,35.8124913 13.6309293,35.8867529 C13.4958694,35.9610886 13.348494,35.9982564 13.1888034,35.9982564 C12.9325616,35.9982564 12.7253952,35.9165538 12.5674161,35.7530006 C12.4094369,35.5895215 12.3304473,35.354039 12.3304473,35.046442" id="Fill-48" fill="#F4A200"></path>
                        <path d="M14.4057008,35.9571126 L14.4057008,34.1357787 L14.6849362,34.1357787 L14.6849362,34.4119089 C14.7561497,34.28271 14.8219681,34.1975276 14.88228,34.1563617 C14.9426291,34.1151587 15.0089685,34.0946128 15.0813725,34.0946128 C15.185923,34.0946128 15.2922222,34.1277454 15.400233,34.1940478 L15.2933756,34.4804324 C15.2175486,34.4358977 15.1416844,34.4135748 15.0658573,34.4135748 C14.9980297,34.4135748 14.9371597,34.4338986 14.883173,34.4744353 C14.8291118,34.5150829 14.7906402,34.5713899 14.7676837,34.6434303 C14.7331932,34.7531939 14.7159293,34.8732118 14.7159293,35.0035583 L14.7159293,35.9571126 L14.4057008,35.9571126 Z" id="Fill-49" fill="#F4A200"></path>
                        <path d="M18.4080288,35.0755802 L18.7424044,35.159615 C18.6723072,35.4328947 18.5461769,35.6412788 18.3640506,35.7847302 C18.1819243,35.9282558 17.9592801,36 17.696155,36 C17.4238028,36 17.2023119,35.9448036 17.0316825,35.8344848 C16.8610531,35.724166 16.7311649,35.5643518 16.6421295,35.3551162 C16.5530941,35.1459177 16.5085578,34.9212079 16.5085578,34.681172 C16.5085578,34.4193314 16.5588239,34.1909566 16.6593561,33.9960107 C16.7599256,33.8010648 16.9029849,33.6529859 17.0885714,33.5518479 C17.2741207,33.450599 17.4783849,33.399993 17.7013268,33.399993 C17.9541084,33.399993 18.1667068,33.4640741 18.339085,33.5921254 C18.5114259,33.7201767 18.6314916,33.9002777 18.6993192,34.1323174 L18.3701153,34.2095035 C18.3115149,34.026589 18.2264606,33.893392 18.1150269,33.8099125 C18.0035187,33.72647 17.8633615,33.6847488 17.6944435,33.6847488 C17.5002251,33.6847488 17.3378928,33.7310235 17.2074837,33.8236468 C17.0770746,33.9162702 16.9854347,34.0406195 16.9325642,34.1966577 C16.8796936,34.3526959 16.8532769,34.5136206 16.8532769,34.679432 C16.8532769,34.893221 16.8845677,35.0798375 16.9472236,35.2393555 C17.0098422,35.3988365 17.1072491,35.5180771 17.2393697,35.5969662 C17.3715275,35.6758552 17.5145869,35.7152442 17.668585,35.7152442 C17.8558829,35.7152442 18.0144202,35.6615286 18.1443085,35.5540973 C18.2741595,35.446629 18.3620414,35.287148 18.4080288,35.0755802" id="Fill-50" fill="#F4A200"></path>
                        <path d="M19.3181169,35.046442 C19.3181169,35.2797033 19.3692388,35.4543254 19.4715197,35.5703453 C19.5738006,35.6864021 19.7024982,35.7444491 19.8576125,35.7444491 C20.0116106,35.7444491 20.1397129,35.686106 20.2419938,35.5694938 C20.3442747,35.4528816 20.3953966,35.2751499 20.3953966,35.0361875 C20.3953966,34.8109594 20.3439399,34.6402244 20.241138,34.5242046 C20.1382618,34.4082218 20.01042,34.3501378 19.8576125,34.3501378 C19.7024982,34.3501378 19.5738006,34.4079256 19.4715197,34.5233161 C19.3692388,34.6388547 19.3181169,34.8131806 19.3181169,35.046442 M18.9992564,35.046442 C18.9992564,34.7091552 19.0934263,34.459346 19.2819149,34.2970145 C19.439336,34.1620775 19.6312476,34.0946276 19.8576125,34.0946276 C20.1092779,34.0946276 20.3149559,34.1766263 20.4746838,34.3406978 C20.6343745,34.5048062 20.7142571,34.7314781 20.7142571,35.0207133 C20.7142571,35.2551222 20.678948,35.4394805 20.6082555,35.5738251 C20.5376002,35.7081697 20.4347612,35.8124913 20.2997384,35.8867529 C20.1646785,35.9610886 20.0173032,35.9982564 19.8576125,35.9982564 C19.6013707,35.9982564 19.3942044,35.9165538 19.2362252,35.7530006 C19.078246,35.5895215 18.9992564,35.354039 18.9992564,35.046442" id="Fill-51" fill="#F4A200"></path>
                        <path d="M21.0779627,35.9571126 L21.0779627,34.1357787 L21.3554866,34.1357787 L21.3554866,34.3912889 C21.4129336,34.3021454 21.4893188,34.2304012 21.5847165,34.1760562 C21.6801142,34.1217482 21.788683,34.0946128 21.9104974,34.0946128 C22.0460782,34.0946128 22.1572515,34.1225997 22.2440173,34.1786476 C22.3307831,34.2346955 22.3919507,34.3129922 22.4275946,34.4135748 C22.5724027,34.2009335 22.7608168,34.0946128 22.9929488,34.0946128 C23.1745169,34.0946128 23.3141161,34.1446635 23.4118206,34.2446538 C23.5094507,34.3447181 23.5583029,34.4987942 23.5583029,34.7068451 L23.5583029,35.9571126 L23.2497859,35.9571126 L23.2497859,34.809797 C23.2497859,34.6862992 23.2397029,34.5973778 23.2196113,34.5430698 C23.1995198,34.4887619 23.1630201,34.4450786 23.1101495,34.4119089 C23.057279,34.3787022 22.9952556,34.3621544 22.924005,34.3621544 C22.7953074,34.3621544 22.68845,34.4047271 22.6033958,34.4899095 C22.5183415,34.5750919 22.4758516,34.7114726 22.4758516,34.8989405 L22.4758516,35.9571126 L22.1655858,35.9571126 L22.1655858,34.7737028 C22.1655858,34.6365447 22.1403225,34.5336668 22.0897587,34.4650322 C22.0391578,34.3964347 21.9564475,34.3621544 21.8415536,34.3621544 C21.7541925,34.3621544 21.6734914,34.3849956 21.5993759,34.430789 C21.5252603,34.4764713 21.471534,34.543366 21.4382341,34.6313989 C21.4048598,34.7194689 21.3882285,34.8463725 21.3882285,35.0121099 L21.3882285,35.9571126 L21.0779627,35.9571126 Z" id="Fill-52" fill="#F4A200"></path>
                        <path d="M24.0185187,35.9571126 L24.0185187,34.1357787 L24.2960427,34.1357787 L24.2960427,34.3912889 C24.3534897,34.3021454 24.4298748,34.2304012 24.5252725,34.1760562 C24.6206702,34.1217482 24.7292391,34.0946128 24.8510534,34.0946128 C24.9866343,34.0946128 25.0978076,34.1225997 25.1845733,34.1786476 C25.2713391,34.2346955 25.3325067,34.3129922 25.3681507,34.4135748 C25.5129587,34.2009335 25.7013729,34.0946128 25.9335048,34.0946128 C26.115073,34.0946128 26.2546721,34.1446635 26.3523766,34.2446538 C26.4500067,34.3447181 26.498859,34.4987942 26.498859,34.7068451 L26.498859,35.9571126 L26.1903419,35.9571126 L26.1903419,34.809797 C26.1903419,34.6862992 26.1802589,34.5973778 26.1601674,34.5430698 C26.1400758,34.4887619 26.1035762,34.4450786 26.0507056,34.4119089 C25.997835,34.3787022 25.9358116,34.3621544 25.864561,34.3621544 C25.7358634,34.3621544 25.6290061,34.4047271 25.5439518,34.4899095 C25.4588975,34.5750919 25.4164076,34.7114726 25.4164076,34.8989405 L25.4164076,35.9571126 L25.1061418,35.9571126 L25.1061418,34.7737028 C25.1061418,34.6365447 25.0808786,34.5336668 25.0303148,34.4650322 C24.9797138,34.3964347 24.8970036,34.3621544 24.7821096,34.3621544 C24.6947485,34.3621544 24.6140474,34.3849956 24.5399319,34.430789 C24.4658164,34.4764713 24.4120901,34.543366 24.3787902,34.6313989 C24.3454158,34.7194689 24.3287845,34.8463725 24.3287845,35.0121099 L24.3287845,35.9571126 L24.0185187,35.9571126 Z" id="Fill-53" fill="#F4A200"></path>
                        <path d="M27.1935061,34.8714645 L28.2156456,34.8714645 C28.2018419,34.7183139 28.162775,34.6033676 28.0984076,34.5267738 C27.9995869,34.4079404 27.8714474,34.3484127 27.7140263,34.3484127 C27.5715623,34.3484127 27.451757,34.395835 27.354685,34.4907906 C27.2575386,34.5857092 27.2038495,34.7126128 27.1935061,34.8714645 M28.2121854,35.3705646 L28.5327946,35.4099906 C28.4821936,35.5963849 28.3885446,35.740984 28.2518104,35.8438989 C28.1150762,35.9467767 27.9403912,35.9982342 27.7278299,35.9982342 C27.4600913,35.9982342 27.2477905,35.9162725 27.0909275,35.752127 C26.9341017,35.5880555 26.8556702,35.3580149 26.8556702,35.061857 C26.8556702,34.7554817 26.9349575,34.5176669 27.093532,34.3484127 C27.2521065,34.1792325 27.4577845,34.0946424 27.7106033,34.0946424 C27.9553483,34.0946424 28.1552965,34.1774926 28.310448,34.3432669 C28.4655623,34.5090783 28.5431008,34.7423397 28.5431008,35.0429769 C28.5431008,35.0613387 28.5425427,35.0887333 28.5413893,35.1253088 L27.1762794,35.1253088 C27.1877391,35.3254005 27.2446279,35.4785881 27.3469089,35.5849458 C27.4491898,35.6912665 27.5766968,35.7444639 27.7295414,35.7444639 C27.8433192,35.7444639 27.9403912,35.714737 28.0208691,35.6552463 C28.1012725,35.5957926 28.1650446,35.500874 28.2121854,35.3705646" id="Fill-54" fill="#F4A200"></path>
                        <path d="M28.9188874,35.9571126 L28.9188874,34.1357787 L29.1981229,34.1357787 L29.1981229,34.4119089 C29.2693363,34.28271 29.3351547,34.1975276 29.3954666,34.1563617 C29.4558157,34.1151587 29.5221551,34.0946128 29.5945591,34.0946128 C29.6991096,34.0946128 29.8054089,34.1277454 29.9134196,34.1940478 L29.8065623,34.4804324 C29.7307352,34.4358977 29.654871,34.4135748 29.5790439,34.4135748 C29.5112163,34.4135748 29.4503463,34.4338986 29.3963596,34.4744353 C29.3422984,34.5150829 29.3038268,34.5713899 29.2808703,34.6434303 C29.2463798,34.7531939 29.2291159,34.8732118 29.2291159,35.0035583 L29.2291159,35.9571126 L28.9188874,35.9571126 Z" id="Fill-55" fill="#F4A200"></path>
                        <path d="M31.2923517,35.2899615 L31.5974458,35.3294245 C31.5641087,35.538623 31.4787939,35.7023984 31.3414644,35.8207504 C31.2041349,35.9391025 31.0355146,35.9982601 30.8356036,35.9982601 C30.5850544,35.9982601 30.3836923,35.9167796 30.2314429,35.7538558 C30.0791936,35.590969 30.0030689,35.3574114 30.0030689,35.0532943 C30.0030689,34.8566455 30.0358107,34.6845408 30.1012943,34.5370541 C30.1668151,34.3895675 30.2664915,34.2789155 30.4003609,34.2052463 C30.5342302,34.1315029 30.6798568,34.0946313 30.8373151,34.0946313 C31.0361099,34.0946313 31.1986655,34.144682 31.3250935,34.2446723 C31.4514843,34.3447366 31.5325203,34.4868184 31.568127,34.6708064 L31.2664931,34.7171551 C31.2377696,34.5948419 31.1869082,34.5027739 31.1139461,34.4410249 C31.040984,34.379276 30.9528043,34.3484016 30.84937,34.3484016 C30.6931023,34.3484016 30.566079,34.4041533 30.4684489,34.5156567 C30.3707444,34.6270861 30.3219294,34.8034852 30.3219294,35.0447058 C30.3219294,35.2893692 30.3690329,35.467175 30.4632772,35.5780861 C30.5574843,35.6889972 30.6804521,35.7444528 30.8321434,35.7444528 C30.9539205,35.7444528 31.0556062,35.707285 31.1372374,35.6329864 C31.2187943,35.5586507 31.2705114,35.4443338 31.2923517,35.2899615" id="Fill-56" fill="#F4A200"></path>
                        <path d="M31.8646151,35.95712 L33.0706718,35.95712 L33.0706718,34.1357861 L31.8646151,34.1357861 L31.8646151,35.95712 Z M31.8646151,33.797907 L33.0706718,33.797907 L33.0706718,33.4428878 L31.8646151,33.4428878 L31.8646151,33.797907 Z" id="Fill-57" fill="#F4A200"></path>
                        <path d="M33.8157884,35.0429695 C33.703164,35.0887259 33.5342461,35.1276337 33.3090346,35.1595817 C33.1814904,35.1779065 33.0912644,35.1984894 33.0383938,35.2213306 C32.9855605,35.2442458 32.9447448,35.2776746 32.9160214,35.3216911 C32.8872979,35.3657446 32.8729361,35.4146106 32.8729361,35.4683263 C32.8729361,35.5506211 32.9042269,35.6192187 32.9668828,35.674119 C33.0295015,35.7289822 33.1211785,35.7564509 33.2418023,35.7564509 C33.3613098,35.7564509 33.4676091,35.730426 33.5607,35.6783762 C33.6537909,35.6264005 33.7221022,35.5552486 33.7658199,35.4648464 C33.7991198,35.3951753 33.8157884,35.2922604 33.8157884,35.1562129 L33.8157884,35.0429695 Z M33.841647,35.7324621 C33.7267158,35.8296389 33.6161006,35.8982735 33.5098386,35.9382548 C33.4035393,35.9782361 33.2894639,35.9982638 33.1676867,35.9982638 C32.9665851,35.9982638 32.8120289,35.9493607 32.7040182,35.8516286 C32.5960075,35.7538595 32.5420207,35.6289919 32.5420207,35.4768778 C32.5420207,35.3877343 32.5623727,35.3062169 32.6031883,35.2324735 C32.6439667,35.1587302 32.6973954,35.0995727 32.7635115,35.0549639 C32.8295532,35.0104292 32.9039664,34.9767412 32.9867139,34.953826 C33.0476211,34.9378335 33.1395214,34.9223592 33.2624891,34.9075513 C33.5130011,34.8778245 33.6974342,34.8423226 33.8157884,34.8011936 C33.8169046,34.7588801 33.8174999,34.7320038 33.8174999,34.7205647 C33.8174999,34.5948456 33.7882183,34.5061834 33.7296179,34.454763 C33.6503307,34.3850178 33.5325346,34.3501452 33.3762669,34.3501452 C33.2303054,34.3501452 33.1225924,34.3756148 33.0530532,34.4264429 C32.9835141,34.477345 32.9321318,34.56734 32.8987947,34.6965759 L32.5954494,34.6554099 C32.6230194,34.5262111 32.6684115,34.4218894 32.7315883,34.3424081 C32.7948023,34.2629637 32.8861445,34.2017701 33.0056892,34.1589012 C33.1251596,34.1160324 33.2636425,34.094635 33.4210636,34.094635 C33.5773313,34.094635 33.7043174,34.1129227 33.8019847,34.1494982 C33.899652,34.1861108 33.971498,34.2320893 34.0174481,34.2875448 C34.0633982,34.3430004 34.0955819,34.4130417 34.1139992,34.4976688 C34.1243054,34.5501998 34.1295144,34.6451555 34.1295144,34.7823136 L34.1295144,35.193936 C34.1295144,35.480913 34.1360999,35.6623837 34.1493083,35.7384593 C34.1625166,35.8144608 34.1886356,35.8873526 34.2277398,35.9570978 L33.9037075,35.9570978 C33.8715238,35.8930537 33.850837,35.8181257 33.841647,35.7324621 L33.841647,35.7324621 Z" id="Fill-58" fill="#F4A200"></path>
                        <polygon id="Fill-59" fill="#F4A200" points="34.603504 35.95712 34.9137698 35.95712 34.9137698 33.4428878 34.603504 33.4428878"></polygon>
                        <path d="M37.1372767,35.9571126 L36.1582596,33.4428803 L36.5202053,33.4428803 L37.1769017,35.26936 C37.2297723,35.4157731 37.2740109,35.5529312 37.3096548,35.6809824 C37.3486845,35.5437503 37.3941138,35.4065922 37.4457937,35.26936 L38.1283859,33.4428803 L38.469682,33.4428803 L37.4802842,35.9571126 L37.1372767,35.9571126 Z" id="Fill-60" fill="#F4A200"></path>
                        <path d="M38.7695708,34.8714645 L39.7917103,34.8714645 C39.7779067,34.7183139 39.7388397,34.6033676 39.6744723,34.5267738 C39.5756516,34.4079404 39.4475121,34.3484127 39.290091,34.3484127 C39.147627,34.3484127 39.0278218,34.395835 38.9307498,34.4907906 C38.8336034,34.5857092 38.7799142,34.7126128 38.7695708,34.8714645 M39.7882501,35.3705646 L40.1088593,35.4099906 C40.0582583,35.5963849 39.9646093,35.740984 39.8278751,35.8438989 C39.6911409,35.9467767 39.5164559,35.9982342 39.3038947,35.9982342 C39.036156,35.9982342 38.8238552,35.9162725 38.6669922,35.752127 C38.5101664,35.5880555 38.4317349,35.3580149 38.4317349,35.061857 C38.4317349,34.7554817 38.5110222,34.5176669 38.6695967,34.3484127 C38.8281712,34.1792325 39.0338492,34.0946424 39.286668,34.0946424 C39.531413,34.0946424 39.7313612,34.1774926 39.8865127,34.3432669 C40.041627,34.5090783 40.1191655,34.7423397 40.1191655,35.0429769 C40.1191655,35.0613387 40.1186074,35.0887333 40.117454,35.1253088 L38.7523442,35.1253088 C38.7638038,35.3254005 38.8206927,35.4785881 38.9229736,35.5849458 C39.0252545,35.6912665 39.1527615,35.7444639 39.3056062,35.7444639 C39.4193839,35.7444639 39.5164559,35.714737 39.5969338,35.6552463 C39.6773372,35.5957926 39.7411093,35.500874 39.7882501,35.3705646" id="Fill-61" fill="#F4A200"></path>
                        <path d="M40.4984049,35.9571126 L40.4984049,33.4428803 L40.8086707,33.4428803 L40.8086707,34.3450143 C40.9534415,34.1780553 41.1361631,34.0946128 41.3567982,34.0946128 C41.492379,34.0946128 41.6101751,34.1211559 41.7101492,34.1743903 C41.8101233,34.2275136 41.8816344,34.3009978 41.9247196,34.3947688 C41.967842,34.4884657 41.9893847,34.6245503 41.9893847,34.8029114 L41.9893847,35.9571126 L41.6791189,35.9571126 L41.6791189,34.8029114 C41.6791189,34.6485391 41.6455213,34.5361842 41.578289,34.4659207 C41.5110567,34.3955462 41.4159567,34.3604145 41.2930261,34.3604145 C41.2010886,34.3604145 41.1146205,34.3842182 41.0336217,34.4315664 C40.9525858,34.4790627 40.8948411,34.543366 40.8603878,34.6245503 C40.8258973,34.7057346 40.8086707,34.8177563 40.8086707,34.9606895 L40.8086707,35.9571126 L40.4984049,35.9571126 Z" id="Fill-62" fill="#F4A200"></path>
                        <path d="M42.4633594,35.95712 L43.6694161,35.95712 L43.6694161,34.1357861 L42.4633594,34.1357861 L42.4633594,35.95712 Z M42.4633594,33.797907 L43.6694161,33.797907 L43.6694161,33.4428878 L42.4633594,33.4428878 L42.4633594,33.797907 Z" id="Fill-63" fill="#F4A200"></path>
                        <path d="M44.440395,35.2899615 L44.745489,35.3294245 C44.7121519,35.538623 44.6268372,35.7023984 44.4895077,35.8207504 C44.3521781,35.9391025 44.1835579,35.9982601 43.9836468,35.9982601 C43.7330976,35.9982601 43.5317356,35.9167796 43.3794862,35.7538558 C43.2272368,35.590969 43.1511121,35.3574114 43.1511121,35.0532943 C43.1511121,34.8566455 43.1838539,34.6845408 43.2493375,34.5370541 C43.3148583,34.3895675 43.4145348,34.2789155 43.5484041,34.2052463 C43.6822734,34.1315029 43.8279,34.0946313 43.9853583,34.0946313 C44.1841532,34.0946313 44.3467088,34.144682 44.4731368,34.2446723 C44.5995276,34.3447366 44.6805635,34.4868184 44.7161702,34.6708064 L44.4145364,34.7171551 C44.3858129,34.5948419 44.3349515,34.5027739 44.2619894,34.4410249 C44.1890272,34.379276 44.1008476,34.3484016 43.9974133,34.3484016 C43.8411456,34.3484016 43.7141223,34.4041533 43.6164922,34.5156567 C43.5187877,34.6270861 43.4699726,34.8034852 43.4699726,35.0447058 C43.4699726,35.2893692 43.5170762,35.467175 43.6113205,35.5780861 C43.7055276,35.6889972 43.8284953,35.7444528 43.9801866,35.7444528 C44.1019638,35.7444528 44.2036494,35.707285 44.2852807,35.6329864 C44.3668375,35.5586507 44.4185547,35.4443338 44.440395,35.2899615" id="Fill-64" fill="#F4A200"></path>
                        <polygon id="Fill-65" fill="#F4A200" points="45.0040488 35.95712 45.3143146 35.95712 45.3143146 33.4428878 45.0040488 33.4428878"></polygon>
                        <path d="M46.029615,34.8714645 L47.0517545,34.8714645 C47.0379509,34.7183139 46.998884,34.6033676 46.9345166,34.5267738 C46.8356958,34.4079404 46.7075563,34.3484127 46.5501352,34.3484127 C46.4076712,34.3484127 46.287866,34.395835 46.190794,34.4907906 C46.0936476,34.5857092 46.0399585,34.7126128 46.029615,34.8714645 M47.0482943,35.3705646 L47.3689035,35.4099906 C47.3183026,35.5963849 47.2246536,35.740984 47.0879193,35.8438989 C46.9511851,35.9467767 46.7765002,35.9982342 46.5639389,35.9982342 C46.2962003,35.9982342 46.0838994,35.9162725 45.9270364,35.752127 C45.7702107,35.5880555 45.6917792,35.3580149 45.6917792,35.061857 C45.6917792,34.7554817 45.7710664,34.5176669 45.9296409,34.3484127 C46.0882154,34.1792325 46.2938934,34.0946424 46.5467122,34.0946424 C46.7914572,34.0946424 46.9914054,34.1774926 47.1465569,34.3432669 C47.3016712,34.5090783 47.3792097,34.7423397 47.3792097,35.0429769 C47.3792097,35.0613387 47.3786516,35.0887333 47.3774982,35.1253088 L46.0123884,35.1253088 C46.023848,35.3254005 46.0807369,35.4785881 46.1830178,35.5849458 C46.2852987,35.6912665 46.4128057,35.7444639 46.5656504,35.7444639 C46.6794282,35.7444639 46.7765002,35.714737 46.856978,35.6552463 C46.9373815,35.5957926 47.0011536,35.500874 47.0482943,35.3705646" id="Fill-66" fill="#F4A200"></path>
                    </g>
                </g>
                <text id="狮桥众创中心精选车源" font-family="PingFangSC-Semibold, PingFang SC" font-size="28" font-weight="500" line-spacing="42" letter-spacing="3" fill="#FFFFFF">
                    <tspan x="72" y="30">狮桥众创中心精选车源</tspan>
                </text>
            </g>
        </g>
    </g>
</svg>